<svg xmlns="http://www.w3.org/2000/svg"><defs><font id="GothamPro-Light" horiz-adv-x="500"><font-face font-family="Gotham Pro Light" font-weight="400" panose-1="2 0 5 3 3 0 0 2 0 4" ascent="800" descent="-200" x-height="510" cap-height="700" bbox="-67 -214 1145 898" underline-thickness="20" underline-position="-173" unicode-range="U+0020-FB04"/><glyph glyph-name="fi" unicode="fi" horiz-adv-x="611" d="M123 0v465H49v45h74v50q0 88 45 133 40 40 107 40 41 0 76-12v-46q-42 13-76 13-103 0-103-129v-49h178v-45H172V0h-49zm339 0v510h49V0h-49zm-6 643v67h61v-67h-61z"/><glyph glyph-name="fl" unicode="fl" horiz-adv-x="611" d="M123 0v465H49v45h74v50q0 88 45 133 40 40 107 40 41 0 76-12v-46q-42 13-76 13-103 0-103-129v-49h178v-45H172V0h-49zm339 0v730h49V0h-49z"/><glyph glyph-name="ffi" unicode="ffi" horiz-adv-x="973" d="M123 0v465H49v45h74v50q0 88 45 133 40 40 107 40 41 0 76-12v-46q-42 13-76 13-103 0-103-129v-49h178v-45H172V0h-49zm362 0v465h-74v45h74v50q0 88 45 133 40 40 107 40 41 0 76-12v-46q-42 13-76 13-103 0-103-129v-49h178v-45H534V0h-49zm339 0v510h49V0h-49zm-6 643v67h61v-67h-61z"/><glyph glyph-name="ffl" unicode="ffl" horiz-adv-x="973" d="M123 0v465H49v45h74v50q0 88 45 133 40 40 107 40 41 0 76-12v-46q-42 13-76 13-103 0-103-129v-49h178v-45H172V0h-49zm362 0v465h-74v45h74v50q0 88 45 133 40 40 107 40 41 0 76-12v-46q-42 13-76 13-103 0-103-129v-49h178v-45H534V0h-49zm339 0v730h49V0h-49z"/><glyph glyph-name=".notdef" d="M0 0v700h500V0H0zm81 49h339L250 304zM49 96l171 254L49 604V96zm401 0v508L279 350zM250 395l170 255H81z"/><glyph glyph-name=".null" horiz-adv-x="0"/><glyph glyph-name="nonmarkingreturn" horiz-adv-x="333"/><glyph glyph-name="space" horiz-adv-x="300"/><glyph glyph-name="exclam" unicode="!" horiz-adv-x="252" d="M93 0v85h66V0H93zm19 183L97 630v70h58v-70l-15-447h-28z"/><glyph glyph-name="quotedbl" unicode="&quot;" horiz-adv-x="410" d="M68 446l35 254h65v-5L97 446H68zm180 0l35 254h65v-5l-71-249h-29z"/><glyph glyph-name="numbersign" unicode="#" horiz-adv-x="700" d="M138 0l32 187H49v47h129l41 236H89v47h138l31 183h48l-31-183h207l31 183h48l-31-183h120v-47H522l-41-236h129v-47H473L441 0h-48l32 187H218L186 0h-48zm88 234h207l41 236H267z"/><glyph glyph-name="dollar" unicode="$" horiz-adv-x="632" d="M297-98V1Q168 12 60 108l33 39q97-91 206-100v284q-113 25-162.5 69T87 520q0 75 59.5 126.5T297 700v58h48v-60q102-8 193-82l-33-39q-74 65-162 76V372q114-24 165-69t51-119q0-78-59.5-129T345 0v-98h-48zm46 143q74 2 119.5 40.5T508 182q0 54-35 85.5T343 321V45zm-44 337v273q-72-1-116.5-39T138 522q0-52 34-84.5T299 382z"/><glyph glyph-name="percent" unicode="%" horiz-adv-x="824" d="M128 0l514 700h54L182 0h-54zm486-8q-67 0-110 52.5T461 171q0 73 43.5 126T616 350q67 0 110-53t43-126-43.5-126T614-8zm2 43q44 0 72.5 39t28.5 97-30 97-73 39q-44 0-72.5-39.5T513 171q0-58 30-97t73-39zM208 350q-67 0-110 52.5T55 529q0 73 43.5 126T210 708q67 0 110-53t43-126-43.5-126T208 350zm2 43q44 0 72.5 39t28.5 97-30 97-73 39q-44 0-72.5-39.5T107 529q0-58 30-97t73-39z"/><glyph glyph-name="ampersand" unicode="&amp;" horiz-adv-x="696" d="M622-14L501 111Q397-10 264-10q-93 0-154 55T49 186q0 138 181 205-42 46-60 82.5T152 553q0 68 49.5 113.5T327 712q68 0 114.5-44.5T488 558q0-122-172-181l184-189q48 67 91 170l47-19q-51-115-104-186L663 20zM265 35q109 0 203 110L261 359q-80-28-120-73t-40-100q0-64 46.5-107.5T265 35zm20 374q151 48 151 149 0 47-32 78.5T325 668q-53 0-87-33t-34-82q0-33 17.5-64t63.5-80z"/><glyph glyph-name="quotesingle" unicode="'" horiz-adv-x="230" d="M68 446l35 254h65v-5L97 446H68z"/><glyph glyph-name="parenleft" unicode="(" horiz-adv-x="430" d="M348-141Q214-65 142.5 44T71 287t71.5 243T348 715l21-33Q123 531 123 287t246-395z"/><glyph glyph-name="parenright" unicode=")" horiz-adv-x="430" d="M82-141l-21 33Q307 43 307 287T61 682l21 33q134-76 205.5-185T359 287 287.5 44 82-141z"/><glyph glyph-name="asterisk" unicode="*" horiz-adv-x="430" d="M194 406l9 127-106-72-22 37 118 56-118 56 22 37 106-72-9 127h42l-9-127 106 72 22-37-118-56 118-56-22-37-106 72 9-127h-42z"/><glyph glyph-name="plus" unicode="+" horiz-adv-x="640" d="M295 113v215H78v48h217v215h50V376h217v-48H345V113h-50z"/><glyph glyph-name="comma" unicode="," horiz-adv-x="230" d="M65-107L53-82q56 28 56 73v9H82v85h66V11q0-47-19-74t-64-44z"/><glyph glyph-name="hyphen" unicode="-" horiz-adv-x="408" d="M70 269v56h268v-56H70z"/><glyph glyph-name="period" unicode="." horiz-adv-x="230" d="M82 0v85h66V0H82z"/><glyph glyph-name="slash" unicode="/" d="M-18-128l472 926h49L31-128h-49z"/><glyph glyph-name="zero" unicode="0" horiz-adv-x="710" d="M354-12Q224-12 144.5 93.5T65 350q0 97 35 179t102.5 132.5T356 712q130 0 209.5-105.5T645 350q0-97-35-179T507.5 38.5 354-12zm2 47q105 0 170 93.5T591 350t-66 221.5T354 665t-170-93-65-222q0-127 66-221t171-94z"/><glyph glyph-name="one" unicode="1" horiz-adv-x="335" d="M179 0v651L44 605l-14 41 160 59h40V0h-51z"/><glyph glyph-name="two" unicode="2" horiz-adv-x="590" d="M48 0v39l261 236q87 79 121 131.5T464 514q0 66-46.5 108T306 664q-64 0-111.5-32T101 534l-39 26q50 76 106 113t143 37q89 0 148.5-55.5T519 516q0-69-38.5-126T344 244L130 50h396V0H48z"/><glyph glyph-name="three" unicode="3" horiz-adv-x="610" d="M311-12Q151-12 54 114l40 33Q182 35 312 35q73 0 123 44t50 113q0 72-60.5 112T267 344h-38l-13 29 241 278H90v49h438v-37L291 392q47-3 88.5-15.5t78.5-35 59-61 22-88.5q0-89-67.5-146.5T311-12z"/><glyph glyph-name="four" unicode="4" horiz-adv-x="664" d="M445 0v171H66l-18 39 400 495h47V216h114v-45H495V0h-50zM111 216h334v414z"/><glyph glyph-name="five" unicode="5" horiz-adv-x="605" d="M302-12q-68 0-132 31.5T57 101l37 37Q197 35 304 35q82 0 135 51t53 127q0 73-53.5 119.5T300 379q-77 0-158-44l-40 26 20 339h393v-50H168l-17-262q78 38 155 38 103 0 171.5-59.5T546 213q0-99-69-162T302-12z"/><glyph glyph-name="six" unicode="6" horiz-adv-x="642" d="M331-12q-108 0-178 70-46 46-67.5 108T64 333q0 162 78.5 270.5T349 712q103 0 202-81l-33-40q-83 74-173 74-103 0-166-96t-63-250v-17q76 130 219 130 98 0 169.5-60.5T576 218q0-99-70.5-164.5T331-12zm4 47q83 0 135 53t52 130q0 72-53.5 120T332 386t-139-53-56-122q0-75 56.5-125.5T335 35z"/><glyph glyph-name="seven" unicode="7" horiz-adv-x="587" d="M156 0l318 650H68v50h464v-38L213 0h-57z"/><glyph glyph-name="eight" unicode="8" horiz-adv-x="630" d="M315-10q-112 0-186 55.5T55 189q0 59 43 104.5T210 362Q79 415 79 527q0 79 71 131t165 52 165-52 71-133q0-110-131-163 69-23 112-68.5T575 187q0-86-74.5-141.5T315-10zm0 47q94 0 150 43.5T521 187q0 65-60 107.5T315 337q-87 0-146.5-43T109 185q0-62 56-105t150-43zm0 344q76 0 129 40.5T497 527q0 59-52.5 97.5T315 663t-129.5-39-52.5-99q0-63 53-103.5T315 381z"/><glyph glyph-name="nine" unicode="9" horiz-adv-x="642" d="M293-12Q185-12 82 75l33 40q89-80 179-80 102 0 167 94.5T526 372v24q-75-135-218-135-105 0-173.5 62T66 477q0 99 69 167t177 68q107 0 178-71 88-88 88-275 0-164-81-271T293-12zm17 319q86 0 140.5 54.5T505 487q0 75-56.5 126.5T306 665q-83 0-134.5-55.5T120 477q0-74 53.5-122T310 307z"/><glyph glyph-name="colon" unicode=":" horiz-adv-x="240" d="M87 0v85h66V0H87zm0 425v85h66v-85H87z"/><glyph glyph-name="semicolon" unicode=";" horiz-adv-x="240" d="M70-107L58-82q56 28 56 73v9H87v85h66V11q0-47-19-74t-64-44zm17 532v85h66v-85H87z"/><glyph glyph-name="less" unicode="&lt;" horiz-adv-x="640" d="M537 91L73 332v40l464 241v-54L134 353l403-208V91z"/><glyph glyph-name="equal" unicode="=" horiz-adv-x="640" d="M93 214v51h454v-51H93zm0 225v51h454v-51H93z"/><glyph glyph-name="greater" unicode="&gt;" horiz-adv-x="640" d="M103 91v54l403 206-403 208v54l464-241v-40z"/><glyph glyph-name="question" unicode="?" horiz-adv-x="534" d="M212 0v85h66V0h-66zm17 183l-13 162 5 5q99 2 153.5 45T429 512q0 63-46 107t-120 44q-109 0-193-103l-36 30q46 58 101 88.5T265 709q97 0 157-56.5T482 512q0-88-59.5-140.5T270 308l-9-125h-32z"/><glyph glyph-name="at" unicode="@" horiz-adv-x="980" d="M499-162q-190 0-318 127.5T53 274q0 180 127.5 309T491 712q182 0 309-118t127-278q0-119-55-181T745 73q-52 0-87.5 25T609 166q-75-93-171-93-74 0-125.5 50T261 251q0 103 72.5 176T494 500q102 0 149-89l14 75 48-6-37-211q-9-52-9-72 0-43 23.5-65.5T749 109q58 0 101 53t43 154q0 91-51.5 174.5T696 627t-205 53q-172 0-288-118.5T87 274q0-170 116.5-287T499-130q134 0 250 68l15-25q-123-75-265-75zm-53 282q70 0 125 59.5T626 313q0 59-37.5 99T494 452q-70 0-125.5-57.5T313 255q0-63 36.5-99t96.5-36z"/><glyph glyph-name="A" unicode="A" horiz-adv-x="790" d="M44 0l326 705h50L746 0h-57l-89 196H187L98 0H44zm165 243h369L394 648z"/><glyph glyph-name="B" unicode="B" horiz-adv-x="722" d="M104 0v700h289q103 0 165-47.5T620 526q0-118-119-166 158-41 158-169 0-87-68.5-139T408 0H104zm52 48h254q90 0 143 39t53 106q0 65-55 100.5T393 329H156V48zm0 329h231q81 0 130.5 38T567 523q0 59-46 94t-129 35H156V377z"/><glyph glyph-name="C" unicode="C" horiz-adv-x="738" d="M421-12Q272-12 172.5 92.5T73 350q0 150 100 256t250 106q86 0 146.5-29T692 597l-34-35Q552 665 422 665q-126 0-210.5-90.5T127 350q0-133 85.5-224T423 35q73 0 129 27t112 82l35-34q-61-60-126-91T421-12z"/><glyph glyph-name="D" unicode="D" horiz-adv-x="782" d="M104 0v700h233q164 0 268-99.5T709 350q0-150-104.5-250T337 0H104zm52 48h181q143 0 230.5 86T655 350q0 128-87.5 215T337 652H156V48z"/><glyph glyph-name="E" unicode="E" horiz-adv-x="670" d="M104 0v700h498v-48H156V377h401v-48H156V48h451V0H104z"/><glyph glyph-name="F" unicode="F" horiz-adv-x="656" d="M104 0v700h493v-48H156V365h396v-48H156V0h-52z"/><glyph glyph-name="G" unicode="G" horiz-adv-x="784" d="M425-12Q264-12 168.5 92T73 350q0 147 97 254.5T419 712q81 0 140.5-23T675 620l-34-39q-96 84-225 84-125 0-207-92t-82-223q0-139 81-227.5T427 34q63 0 122.5 22.5T650 114v201H416v48h284V93q-52-46-123.5-75.5T425-12z"/><glyph glyph-name="H" unicode="H" horiz-adv-x="760" d="M104 0v700h52V376h448v324h52V0h-52v328H156V0h-52z"/><glyph glyph-name="I" unicode="I" horiz-adv-x="274" d="M111 0v700h52V0h-52z"/><glyph glyph-name="J" unicode="J" horiz-adv-x="549" d="M249-10Q110-10 37 121l43 27q34-57 73.5-84T252 37q67 0 109.5 49T404 224v476h52V228q0-118-64-182-56-56-143-56z"/><glyph glyph-name="K" unicode="K" horiz-adv-x="715" d="M104 0v700h52V240l446 460h71L367 391 686 0h-68L330 354 156 178V0h-52z"/><glyph glyph-name="L" unicode="L" horiz-adv-x="619" d="M104 0v700h52V48h411V0H104z"/><glyph glyph-name="M" unicode="M" horiz-adv-x="868" d="M104 0v700h49l281-414 281 414h49V0h-52v608L435 205h-4L154 608V0h-50z"/><glyph glyph-name="N" unicode="N" horiz-adv-x="790" d="M104 0v700h49L636 91v609h50V0h-39L154 622V0h-50z"/><glyph glyph-name="O" unicode="O" horiz-adv-x="850" d="M424-12Q269-12 171 94.5T73 350q0 148 99 255t254 107 253-106.5T777 350q0-148-99-255T424-12zm2 47q128 0 212.5 91T723 350q0 131-85.5 223T424 665t-212.5-91T127 350q0-131 85.5-223T426 35z"/><glyph glyph-name="P" unicode="P" horiz-adv-x="668" d="M104 0v700h254q117 0 188.5-57.5T618 484q0-106-78.5-164.5T345 261H156V0h-52zm52 309h192q98 0 158 47.5T566 483q0 81-57.5 125T354 652H156V309z"/><glyph glyph-name="Q" unicode="Q" horiz-adv-x="850" d="M748-21l-98 89q-94-80-226-80-155 0-253 106.5T73 350q0 148 99 255t254 107 253-106.5T777 350q0-144-92-247l100-84zM426 35q107 0 186 66L476 217l37 41 134-122q76 89 76 214 0 131-85.5 223T424 665t-212.5-91T127 350q0-131 85.5-223T426 35z"/><glyph glyph-name="R" unicode="R" horiz-adv-x="723" d="M104 0v700h294q128 0 197-69 53-53 53-132 0-85-56-136t-149-64L674 0h-66L385 290H156V0h-52zm52 337h236q90 0 147 43.5T596 499q0 71-53 112t-148 41H156V337z"/><glyph glyph-name="S" unicode="S" horiz-adv-x="640" d="M341-10Q184-10 59 102l34 39q59-55 117-79.5T344 37q78 0 127.5 39.5T521 178q0 58-41.5 92T323 327q-126 26-181 72T87 526q0 78 64 131t161 53q74 0 129.5-20.5T552 625l-33-41q-91 79-209 79-76 0-123.5-38.5T139 529q0-59 42.5-94T343 376q121-25 175.5-71T573 181q0-84-65-137.5T341-10z"/><glyph glyph-name="T" unicode="T" horiz-adv-x="648" d="M298 0v652H54v48h540v-48H350V0h-52z"/><glyph glyph-name="U" unicode="U" horiz-adv-x="760" d="M380-11q-129 0-208 79T93 291v409h52V296q0-123 63-191.5T382 36q109 0 171 65.5T615 291v409h52V297q0-147-78-227.5T380-11z"/><glyph glyph-name="V" unicode="V" horiz-adv-x="750" d="M352-5L44 700h58L376 56l275 644h55L398-5h-46z"/><glyph glyph-name="W" unicode="W" horiz-adv-x="1102" d="M304-5L50 700h58L328 77l205 625h40L778 77l220 623h54L798-5h-42L551 603 346-5h-42z"/><glyph glyph-name="X" unicode="X" horiz-adv-x="722" d="M51 0l279 357L61 700h62l239-308 238 308h61L393 358 671 0h-62L360 323 112 0H51z"/><glyph glyph-name="Y" unicode="Y" horiz-adv-x="716" d="M332 0v277L32 700h65l262-376 263 376h62L384 278V0h-52z"/><glyph glyph-name="Z" unicode="Z" horiz-adv-x="688" d="M68 0v29l479 624H85v47h536v-29L142 47h479V0H68z"/><glyph glyph-name="bracketleft" unicode="[" horiz-adv-x="430" d="M98-130v830h273v-38H144V-92h227v-38H98z"/><glyph glyph-name="backslash" unicode="\" d="M469-128L-3 798h49l472-926h-49z"/><glyph glyph-name="bracketright" unicode="]" horiz-adv-x="430" d="M59-130v38h227v754H59v38h273v-830H59z"/><glyph glyph-name="asciicircum" unicode="^" d="M70 493l158 210h44l158-210h-53L249 660 121 493H70z"/><glyph glyph-name="underscore" unicode="_" horiz-adv-x="600" d="M-2-160v44h604v-44H-2z"/><glyph glyph-name="grave" unicode="`" d="M264 595L157 698l61 30 88-133h-42z"/><glyph glyph-name="a" unicode="a" horiz-adv-x="574" d="M248-12q-78 0-137.5 43T51 150q0 78 61 122t162 44q86 0 169-22v22q0 76-44 116t-124 40-160-41l-18 43q95 44 181 44 105 0 161-56 52-52 52-144V0h-48v85q-69-97-195-97zm3 46q80 0 136.5 44.5T444 191v58q-90 23-173 23-80 0-124-32.5T103 151q0-53 43.5-85T251 34z"/><glyph glyph-name="b" unicode="b" horiz-adv-x="660" d="M352-12q-130 0-210 122V0H93v730h49V396q83 126 210 126 98 0 173-73.5T600 255q0-119-75-193T352-12zm-5 47q86 0 143 59.5T547 255q0 98-58.5 159T347 475t-145.5-62.5T139 254q0-95 62.5-157T347 35z"/><glyph glyph-name="c" unicode="c" horiz-adv-x="571" d="M318-12q-110 0-185 78T58 255q0 110 75.5 188.5T318 522q119 0 203-95l-34-35q-82 84-170 84-85 0-145.5-65T111 255q0-92 61-156.5T321 34q91 0 169 87l36-32Q437-12 318-12z"/><glyph glyph-name="d" unicode="d" horiz-adv-x="660" d="M308-12q-98 0-173 73.5T60 255q0 119 75 193t173 74q130 0 210-122v330h49V0h-49v114Q435-12 308-12zm5 47q83 0 145.5 62.5T521 256q0 95-62.5 157T313 475q-86 0-143-59.5T113 255q0-98 58.5-159T313 35z"/><glyph glyph-name="e" unicode="e" horiz-adv-x="584" d="M308-12q-103 0-176.5 75T58 256q0 112 69.5 189T300 522q105 0 169.5-76T534 255q0-12-1-20H110q7-92 64.5-146.5T310 34q100 0 175 80l34-30q-89-96-211-96zM110 279h371q-6 84-53 141t-130 57q-75 0-128-56.5T110 279z"/><glyph glyph-name="f" unicode="f" horiz-adv-x="362" d="M123 0v465H49v45h74v50q0 88 45 133 40 40 107 40 41 0 76-12v-46q-42 13-76 13-103 0-103-129v-49h178v-45H172V0h-49z"/><glyph glyph-name="g" unicode="g" horiz-adv-x="660" d="M317-162q-129 0-234 78l29 40q93-72 206-72 91 0 145.5 51T518 82v74Q436 38 305 38q-97 0-171 67.5T60 280q0 106 74 174t171 68q133 0 213-114v102h49V79q0-108-65-173-68-68-185-68zm-7 247q83 0 147 55.5T521 281t-63.5 139.5T310 475q-83 0-140-53.5T113 280q0-84 58-139.5T310 85z"/><glyph glyph-name="h" unicode="h" horiz-adv-x="613" d="M93 0v730h49V415q61 107 184 107 95 0 149.5-58.5T530 312V0h-49v303q0 80-43 127t-119 47-126.5-51.5T142 295V0H93z"/><glyph glyph-name="i" unicode="i" horiz-adv-x="249" d="M100 0v510h49V0h-49zm-6 643v67h61v-67H94z"/><glyph glyph-name="j" unicode="j" horiz-adv-x="249" d="M40-163q-21 0-41 4v43q18-3 40-3 28 0 44.5 18T100-48v558h49V-45q0-58-29-88t-80-30zm54 806v67h61v-67H94z"/><glyph glyph-name="k" unicode="k" horiz-adv-x="560" d="M93 0v730h49V183l316 327h65L300 284 530 0h-62L266 249 142 124V0H93z"/><glyph glyph-name="l" unicode="l" horiz-adv-x="249" d="M100 0v730h49V0h-49z"/><glyph glyph-name="m" unicode="m" horiz-adv-x="951" d="M93 0v510h49v-91q30 48 69 75.5T312 522q120 0 172-110 64 110 184 110 90 0 143-58t53-155V0h-49v303q0 82-40 128t-111 46q-67 0-114-49t-47-131V0h-49v306q0 79-40.5 125T305 477t-115.5-53T142 294V0H93z"/><glyph glyph-name="n" unicode="n" horiz-adv-x="613" d="M93 0v510h49v-95q61 107 184 107 95 0 149.5-58.5T530 312V0h-49v303q0 80-43 127t-119 47-126.5-51.5T142 295V0H93z"/><glyph glyph-name="o" unicode="o" horiz-adv-x="640" d="M319-12q-112 0-186.5 78.5T58 255q0 109 75.5 188T321 522t186.5-78.5T582 255q0-109-75.5-188T319-12zm2 46q85 0 146.5 65T529 255q0 92-61.5 156.5T319 476q-86 0-147-64.5T111 255t61-156.5T321 34z"/><glyph glyph-name="p" unicode="p" horiz-adv-x="660" d="M93-160v670h49V396q83 126 210 126 98 0 173-73.5T600 255q0-119-75-193T352-12q-130 0-210 122v-270H93zM347 35q86 0 143 59.5T547 255q0 98-58.5 159T347 475t-145.5-62.5T139 254q0-95 62.5-157T347 35z"/><glyph glyph-name="q" unicode="q" horiz-adv-x="660" d="M518-160v274Q435-12 308-12q-98 0-173 73.5T60 255q0 119 75 193t173 74q130 0 210-122v110h49v-670h-49zM313 35q83 0 145.5 62.5T521 256q0 95-62.5 157T313 475q-86 0-143-59.5T113 255q0-98 58.5-159T313 35z"/><glyph glyph-name="r" unicode="r" horiz-adv-x="400" d="M93 0v510h49V365q31 70 91.5 113T368 518v-54h-5q-93 0-157-68t-64-187V0H93z"/><glyph glyph-name="s" unicode="s" horiz-adv-x="497" d="M258-10q-55 0-111.5 20.5T49 64l29 39q87-67 183-67 53 0 88 27t35 72q0 41-34.5 62T249 237q-35 10-51 15t-45 18-42.5 26-25 34.5T74 379q0 62 47 101.5T242 520q97 0 181-56l-26-41q-77 51-157 51-52 0-84-25.5T124 383q0-16 8.5-30t20-23 33-18.5 37-14.5 43.5-13q38-11 62-20t51.5-26 41-41.5T434 139q0-67-50.5-108T258-10z"/><glyph glyph-name="t" unicode="t" horiz-adv-x="400" d="M263-9q-63 0-103 35.5T120 131v334H46v45h74v163h49V510h179v-45H169V136q0-99 102-99 35 0 75 18V9Q307-9 263-9z"/><glyph glyph-name="u" unicode="u" horiz-adv-x="613" d="M287-12q-95 0-149.5 58.5T83 198v312h49V207q0-80 43-127t119-47 126.5 51.5T471 215v295h49V0h-49v95Q410-12 287-12z"/><glyph glyph-name="v" unicode="v" horiz-adv-x="582" d="M270-4L41 510h57L291 55l195 455h55L312-4h-42z"/><glyph glyph-name="w" unicode="w" horiz-adv-x="861" d="M236-4L49 510h55L258 62l154 450h39L605 62l154 448h53L625-4h-42L431 433 278-4h-42z"/><glyph glyph-name="x" unicode="x" horiz-adv-x="570" d="M45 0l209 260L53 510h61l172-216 172 216h59L316 261 525 0h-61L284 227 104 0H45z"/><glyph glyph-name="y" unicode="y" horiz-adv-x="588" d="M155-163q-51 0-101 22l17 43q39-19 87-19 40 0 69 27t57 93L39 510h57L308 54l184 456h54L325-18q-33-78-73.5-111.5T155-163z"/><glyph glyph-name="z" unicode="z" horiz-adv-x="554" d="M58 0v28l368 438H72v44h427v-28L131 44h368V0H58z"/><glyph glyph-name="braceleft" unicode="{" horiz-adv-x="480" d="M416-141q-66 12-108.5 30.5t-64.5 45-30 56-8 71.5v79q0 63-26.5 95T85 268H59v38h26q67 0 93.5 32t26.5 95v79q0 42 8 71.5t30 56 64.5 45T416 715l7-32q-58-15-91-29.5T281.5 617 259 571.5t-5-65.5v-75q0-63-26.5-96T150 287q54-18 79-49.5t25-94.5V68q0-42 5-65.5T281.5-43 332-79.5t91-29.5z"/><glyph glyph-name="bar" unicode="|" horiz-adv-x="286" d="M121-128v926h44v-926h-44z"/><glyph glyph-name="braceright" unicode="}" horiz-adv-x="480" d="M64-141l-7 32q58 15 91 29.5T198.5-43 221 2.5t5 65.5v75q0 63 26.5 96t77.5 48q-54 18-79 49.5T226 431v75q0 42-5 65.5T198.5 617 148 653.5 57 683l7 32q66-12 108.5-30.5t64.5-45 30-56 8-71.5v-79q0-63 26.5-95t93.5-32h26v-38h-26q-67 0-93.5-32T275 141V62q0-42-8-71.5t-30-56-64.5-45T64-141z"/><glyph glyph-name="asciitilde" unicode="~" horiz-adv-x="460" d="M116 242l-34 9q14 52 33.5 72.5T166 344q20 0 66-20.5t62-20.5q18 0 28.5 10.5T344 353l34-9q-14-52-33.5-72.5T294 251q-20 0-66 20.5T166 292q-18 0-28.5-10.5T116 242z"/><glyph glyph-name="uni00A0" horiz-adv-x="300"/><glyph glyph-name="exclamdown" unicode="¡" horiz-adv-x="252" d="M97 0v70l15 447h28l15-447V0H97zm-4 615v85h66v-85H93z"/><glyph glyph-name="cent" unicode="¢" horiz-adv-x="581" d="M214-6l22 109q-78 27-126 96.5T62 355q0 108 76 187.5T322 622h15l16 84h50l-18-91q74-18 141-87l-35-36q-61 63-118 77l-83-432q16-3 35-3 95 0 171 85l34-30Q441 88 322 88q-20 0-39 3L264-6h-50zm34 155l82 427h-9q-87 0-146.5-64T115 355q0-70 37-126t96-80z"/><glyph glyph-name="sterling" unicode="£" horiz-adv-x="644" d="M70 0v25l86 20v260H70v48h86v118q0 116 65 181 58 58 150 58 129 0 210-106l-40-31q-35 44-74 67t-97 23q-70 0-113-43-50-50-50-148V353h298v-48H207V47h374V0H70z"/><glyph glyph-name="currency" unicode="¤" horiz-adv-x="720" d="M428-12q-102 0-177.5 70.5T149 245H59v48h83q-3 27-3 57 0 34 5 66H59v48h94q28 110 100.5 179T421 712q147 0 240-140l-40-27q-43 63-88.5 92T419 666q-74 0-132-56t-83-146h284v-48H195q-5-30-5-66 0-28 3-57h295v-48H202q24-95 85-153t144-58q111 0 194 128l38-25Q566-12 428-12z"/><glyph glyph-name="yen" unicode="¥" horiz-adv-x="686" d="M318 0v125H105v45h213v98H105v45h195L32 700h63l249-373 250 373h60L385 313h196v-45H368v-98h213v-45H368V0h-50z"/><glyph glyph-name="brokenbar" unicode="¦" horiz-adv-x="222" d="M138 411H84v250h54V411zm0-500H84v250h54V-89z"/><glyph glyph-name="section" unicode="§" horiz-adv-x="632" d="M329-10q-65 0-124.5 26T102 85l38 36q80-82 194-82 57 0 86.5 22t29.5 57q0 33-41 57.5T267 224q-111 27-156.5 59T65 365q0 44 40 74.5T213 478q-86 38-86 107 0 56 48.5 90.5T303 710q65 0 124.5-26T530 615l-38-36q-80 82-194 82-57 0-86.5-22T182 582q0-33 41-57.5T365 476q111-27 156.5-59t45.5-82q0-44-40-74.5T419 222q86-38 86-107 0-56-48.5-90.5T329-10zm57 263q57 0 93 23.5t36 56.5q0 29-34.5 52.5T358 431q-64 16-112 16-57 0-93-23.5T117 367q0-29 34.5-52.5T274 269q63-16 112-16z"/><glyph glyph-name="dieresis" unicode="¨" d="M134 595v80h69v-80h-69zm163 0v80h69v-80h-69z"/><glyph glyph-name="copyright" unicode="©" horiz-adv-x="830" d="M414-12Q263-12 158 94T53 350q0 149 106 255.5T416 712t256-106 105-256q0-149-106-255.5T414-12zm0 28q141 0 237 98t96 238q0 138-95 235t-236 97-237-98-96-238q0-138 95-235t236-97zm5 150q-77 0-129.5 55.5T237 356q0 77 53 133t130 56 141-61l-30-31q-54 52-112 52-59 0-98.5-43.5T281 355q0-61 40.5-105t98.5-44q60 0 115 52l28-28q-66-64-144-64z"/><glyph glyph-name="ordfeminine" unicode="ª" horiz-adv-x="390" d="M62 293v40h252v-40H62zm112 118q-44 0-76.5 24.5T65 503t34 68 90 25q41 0 83-11v5q0 38-22 57.5T189 667q-37 0-88-24l-13 34q55 26 103 26 58 0 90-32 28-28 28-80V417h-37v41q-36-47-98-47zm2 36q39 0 67.5 21.5T272 524v27q-36 11-85 11-31 0-56.5-14.5T105 503q0-26 20.5-41t50.5-15z"/><glyph glyph-name="guillemotleft" unicode="«" horiz-adv-x="515" d="M211 42L51 251v8l160 209 37-24-137-188L248 66zm204 0L255 251v8l160 209 37-24-137-188L452 66z"/><glyph glyph-name="logicalnot" unicode="¬" horiz-adv-x="640" d="M547 259h-50v180H93v51h454V259z"/><glyph glyph-name="uni00AD" unicode="­" horiz-adv-x="408" d="M70 269v56h268v-56H70z"/><glyph glyph-name="registered" unicode="®" horiz-adv-x="830" d="M414-12Q263-12 158 94T53 350q0 149 106 255.5T416 712t256-106 105-256q0-149-106-255.5T414-12zm0 28q141 0 237 98t96 238q0 138-95 235t-236 97-237-98-96-238q0-138 95-235t236-97zM276 177v366h164q70 0 107-37 28-28 28-70 0-43-27-69.5T475 331l122-154h-56L423 324H319V177h-43zm43 187h114q43 0 70 18.5t27 53.5q0 30-24.5 48T438 502H319V364z"/><glyph glyph-name="macron" unicode="¯" d="M100 600v53h300v-53H100z"/><glyph glyph-name="degree" unicode="°" horiz-adv-x="450" d="M225 412q-60 0-105.5 44T74 560q0 58 45.5 102T225 706t105.5-44T376 558q0-58-45.5-102T225 412zm0 44q43 0 72 31t29 73q0 41-29 71.5T225 662t-72-31-29-73q0-41 29-71.5t72-30.5z"/><glyph glyph-name="plusminus" unicode="±" horiz-adv-x="640" d="M569 294H347V116h-53v178H72v48h222v177h53V342h222v-48zm0-272H72v48h497V22z"/><glyph glyph-name="twosuperior" unicode="²" d="M0 0v700h500V0H0zm81 49h339L250 304zM49 96l171 254L49 604V96zm401 0v508L279 350zM250 395l170 255H81z"/><glyph glyph-name="threesuperior" unicode="³" d="M0 0v700h500V0H0zm81 49h339L250 304zM49 96l171 254L49 604V96zm401 0v508L279 350zM250 395l170 255H81z"/><glyph glyph-name="acute" unicode="´" d="M194 595l88 133 61-30-107-103h-42z"/><glyph glyph-name="mu" unicode="µ" horiz-adv-x="623" d="M297-12q-99 0-155 85v-233H93v670h49V207q0-80 43-127t119-47 126.5 51.5T481 215v295h49V0h-49v95Q420-12 297-12z"/><glyph glyph-name="mu" unicode="μ" horiz-adv-x="623" d="M297-12q-99 0-155 85v-233H93v670h49V207q0-80 43-127t119-47 126.5 51.5T481 215v295h49V0h-49v95Q420-12 297-12z"/><glyph glyph-name="paragraph" unicode="¶" horiz-adv-x="480" d="M333 0v277h-6q-120 0-197 56.5T53 490q0 97 72 153.5T312 700h74V0h-53z"/><glyph glyph-name="periodcentered" unicode="·" horiz-adv-x="230" d="M82 255v85h66v-85H82z"/><glyph glyph-name="cedilla" unicode="¸" d="M217-148l-55 26 90 132h43z"/><glyph glyph-name="onesuperior" unicode="¹" d="M0 0v700h500V0H0zm81 49h339L250 304zM49 96l171 254L49 604V96zm401 0v508L279 350zM250 395l170 255H81z"/><glyph glyph-name="ordmasculine" unicode="º" horiz-adv-x="390" d="M51 293v40h288v-40H51zm143 118q-61 0-102 43T51 558q0 60 41.5 103.5T196 705q61 0 102-43t41-104q0-60-41.5-103.5T194 411zm2 39q44 0 72 31t28 77q0 45-29.5 76.5T194 666q-44 0-72-31t-28-77q0-45 29.5-76.5T196 450z"/><glyph glyph-name="guillemotright" unicode="»" horiz-adv-x="515" d="M100 42L63 66l137 188L63 444l37 24 160-209v-8zm204 0l-37 24 137 188-137 190 37 24 160-209v-8z"/><glyph glyph-name="onequarter" unicode="¼" d="M0 0v700h500V0H0zm81 49h339L250 304zM49 96l171 254L49 604V96zm401 0v508L279 350zM250 395l170 255H81z"/><glyph glyph-name="onehalf" unicode="½" d="M0 0v700h500V0H0zm81 49h339L250 304zM49 96l171 254L49 604V96zm401 0v508L279 350zM250 395l170 255H81z"/><glyph glyph-name="threequarters" unicode="¾" d="M0 0v700h500V0H0zm81 49h339L250 304zM49 96l171 254L49 604V96zm401 0v508L279 350zM250 395l170 255H81z"/><glyph glyph-name="questiondown" unicode="¿" horiz-adv-x="534" d="M269-9q-97 0-157 56.5T52 188q0 88 59.5 140.5T264 392l9 125h32l13-162-5-5q-99-2-153.5-45T105 188q0-63 46-107t120-44q109 0 193 103l36-30q-46-58-101-88.5T269-9zm-13 624v85h66v-85h-66z"/><glyph glyph-name="Agrave" unicode="À" horiz-adv-x="790" d="M44 0l326 705h50L746 0h-57l-89 196H187L98 0H44zm165 243h369L394 648zm161 522L263 868l61 30 88-133h-42z"/><glyph glyph-name="Aacute" unicode="Á" horiz-adv-x="790" d="M44 0l326 705h50L746 0h-57l-89 196H187L98 0H44zm165 243h369L394 648zm169 522l88 133 61-30-107-103h-42z"/><glyph glyph-name="Acircumflex" unicode="Â" horiz-adv-x="790" d="M44 0l326 705h50L746 0h-57l-89 196H187L98 0H44zm165 243h369L394 648zm66 517l100 122h40l100-122h-47l-74 68-74-68h-45z"/><glyph glyph-name="Atilde" unicode="Ã" horiz-adv-x="790" d="M44 0l326 705h50L746 0h-57l-89 196H187L98 0H44zm165 243h369L394 648zm72 513l-34 9q14 52 33.5 72.5T331 858q19 0 65-20.5t63-20.5q18 0 28.5 10.5T509 867l34-9q-14-52-33.5-72.5T459 765q-19 0-65 20.5T331 806q-18 0-28.5-10.5T281 756z"/><glyph glyph-name="Adieresis" unicode="Ä" horiz-adv-x="790" d="M44 0l326 705h50L746 0h-57l-89 196H187L98 0H44zm165 243h369L394 648zm70 522v80h69v-80h-69zm163 0v80h69v-80h-69z"/><glyph glyph-name="Aring" unicode="Å" horiz-adv-x="790" d="M44 0l313 677q-26 12-43 35.5T297 765q0 38 29.5 65.5T395 858t68.5-28 29.5-67q0-28-17-51t-43-34L746 0h-57l-89 196H187L98 0H44zm165 243h369L394 648zm186 459q25 0 43.5 18.5T457 765q0 25-18.5 43T395 826q-26 0-44-18.5T333 763q0-25 18.5-43t43.5-18z"/><glyph glyph-name="AE" unicode="Æ" horiz-adv-x="1045" d="M20 0l424 700h533v-48H546V377h386v-48H546V48h436V0H494v196H194L76 0H20zm202 243h272v410h-26z"/><glyph glyph-name="Ccedilla" unicode="Ç" horiz-adv-x="738" d="M367-148l-55 26 76 111Q251 2 162 104T73 350q0 150 100 256t250 106q87 0 149.5-28.5T695 600l-37-38Q552 665 422 665q-126 0-210.5-90.5T127 350q0-133 85.5-224T423 35q73 0 129 27t112 82l35-34q-58-57-120.5-88T434-12z"/><glyph glyph-name="Egrave" unicode="È" horiz-adv-x="670" d="M104 0v700h498v-48H156V377h401v-48H156V48h451V0H104zm245 765L242 868l61 30 88-133h-42z"/><glyph glyph-name="Eacute" unicode="É" horiz-adv-x="670" d="M104 0v700h498v-48H156V377h401v-48H156V48h451V0H104zm205 765l88 133 61-30-107-103h-42z"/><glyph glyph-name="Ecircumflex" unicode="Ê" horiz-adv-x="670" d="M104 0v700h498v-48H156V377h401v-48H156V48h451V0H104zm125 765l100 122h40l100-122h-47l-74 68-74-68h-45z"/><glyph glyph-name="Edieresis" unicode="Ë" horiz-adv-x="670" d="M104 0v700h498v-48H156V377h401v-48H156V48h451V0H104zm129 765v80h69v-80h-69zm163 0v80h69v-80h-69z"/><glyph glyph-name="Igrave" unicode="Ì" horiz-adv-x="274" d="M111 0v700h52V0h-52zm3 765L7 868l61 30 88-133h-42z"/><glyph glyph-name="Iacute" unicode="Í" horiz-adv-x="274" d="M111 0v700h52V0h-52zm7 765l88 133 61-30-107-103h-42z"/><glyph glyph-name="Icircumflex" unicode="Î" horiz-adv-x="274" d="M111 0v700h52V0h-52zM18 765l100 122h40l100-122h-47l-74 68-74-68H18z"/><glyph glyph-name="Idieresis" unicode="Ï" horiz-adv-x="274" d="M111 0v700h52V0h-52zM22 765v80h69v-80H22zm163 0v80h69v-80h-69z"/><glyph glyph-name="Eth" unicode="Ð" horiz-adv-x="812" d="M134 0v328H59v48h75v324h233q164 0 268-99.5T739 350q0-150-104.5-250T367 0H134zm52 48h181q143 0 230.5 86T685 350q0 128-87.5 215T367 652H186V376h232v-48H186V48z"/><glyph glyph-name="Ntilde" unicode="Ñ" horiz-adv-x="790" d="M104 0v700h49L636 91v609h50V0h-39L154 622V0h-50zm177 756l-34 9q14 52 33.5 72.5T331 858q19 0 65-20.5t63-20.5q18 0 28.5 10.5T509 867l34-9q-14-52-33.5-72.5T459 765q-19 0-65 20.5T331 806q-18 0-28.5-10.5T281 756z"/><glyph glyph-name="Ograve" unicode="Ò" horiz-adv-x="850" d="M424-12Q269-12 171 94.5T73 350q0 148 99 255t254 107 253-106.5T777 350q0-148-99-255T424-12zm2 47q128 0 212.5 91T723 350q0 131-85.5 223T424 665t-212.5-91T127 350q0-131 85.5-223T426 35zm-27 730L292 868l61 30 88-133h-42z"/><glyph glyph-name="Oacute" unicode="Ó" horiz-adv-x="850" d="M424-12Q269-12 171 94.5T73 350q0 148 99 255t254 107 253-106.5T777 350q0-148-99-255T424-12zm2 47q128 0 212.5 91T723 350q0 131-85.5 223T424 665t-212.5-91T127 350q0-131 85.5-223T426 35zm-17 730l88 133 61-30-107-103h-42z"/><glyph glyph-name="Ocircumflex" unicode="Ô" horiz-adv-x="850" d="M424-12Q269-12 171 94.5T73 350q0 148 99 255t254 107 253-106.5T777 350q0-148-99-255T424-12zm2 47q128 0 212.5 91T723 350q0 131-85.5 223T424 665t-212.5-91T127 350q0-131 85.5-223T426 35zM305 765l100 122h40l100-122h-47l-74 68-74-68h-45z"/><glyph glyph-name="Otilde" unicode="Õ" horiz-adv-x="850" d="M424-12Q269-12 171 94.5T73 350q0 148 99 255t254 107 253-106.5T777 350q0-148-99-255T424-12zm2 47q128 0 212.5 91T723 350q0 131-85.5 223T424 665t-212.5-91T127 350q0-131 85.5-223T426 35zM311 756l-34 9q14 52 33.5 72.5T361 858q19 0 65-20.5t63-20.5q18 0 28.5 10.5T539 867l34-9q-14-52-33.5-72.5T489 765q-19 0-65 20.5T361 806q-18 0-28.5-10.5T311 756z"/><glyph glyph-name="Odieresis" unicode="Ö" horiz-adv-x="850" d="M424-12Q269-12 171 94.5T73 350q0 148 99 255t254 107 253-106.5T777 350q0-148-99-255T424-12zm2 47q128 0 212.5 91T723 350q0 131-85.5 223T424 665t-212.5-91T127 350q0-131 85.5-223T426 35zM309 765v80h69v-80h-69zm163 0v80h69v-80h-69z"/><glyph glyph-name="multiply" unicode="×" horiz-adv-x="640" d="M553 154l-37-37-197 198-196-198-37 37 197 197L86 548l37 37 196-198 197 198 37-37-197-197z"/><glyph glyph-name="Oslash" unicode="Ø" horiz-adv-x="850" d="M424-12q-133 0-228 82L125-5H65l100 106Q73 204 73 350q0 148 99 255t254 107q134 0 228-83l71 76h60L685 599q92-103 92-249 0-148-99-255T424-12zm2 47q128 0 212.5 91T723 350q0 122-74 210L230 110q81-75 196-75zM201 140l419 450q-81 75-196 75-128 0-212.5-91T127 350q0-122 74-210z"/><glyph glyph-name="Ugrave" unicode="Ù" horiz-adv-x="760" d="M380-11q-129 0-208 79T93 291v409h52V296q0-123 63-191.5T382 36q109 0 171 65.5T615 291v409h52V297q0-147-78-227.5T380-11zm-17 771L256 863l61 30 88-133h-42z"/><glyph glyph-name="Uacute" unicode="Ú" horiz-adv-x="760" d="M380-11q-129 0-208 79T93 291v409h52V296q0-123 63-191.5T382 36q109 0 171 65.5T615 291v409h52V297q0-147-78-227.5T380-11zm-25 771l88 133 61-30-107-103h-42z"/><glyph glyph-name="Ucircumflex" unicode="Û" horiz-adv-x="760" d="M380-11q-129 0-208 79T93 291v409h52V296q0-123 63-191.5T382 36q109 0 171 65.5T615 291v409h52V297q0-147-78-227.5T380-11zM260 760l100 122h40l100-122h-47l-74 68-74-68h-45z"/><glyph glyph-name="Udieresis" unicode="Ü" horiz-adv-x="760" d="M380-11q-129 0-208 79T93 291v409h52V296q0-123 63-191.5T382 36q109 0 171 65.5T615 291v409h52V297q0-147-78-227.5T380-11zM264 760v80h69v-80h-69zm163 0v80h69v-80h-69z"/><glyph glyph-name="Yacute" unicode="Ý" horiz-adv-x="716" d="M332 0v277L32 700h65l262-376 263 376h62L384 278V0h-52zm8 760l88 133 61-30-107-103h-42z"/><glyph glyph-name="Thorn" unicode="Þ" horiz-adv-x="673" d="M104 0v700h52V573h202q117 0 188.5-57.5T618 357q0-106-78.5-165T345 133H156V0h-52zm52 181h192q98 0 158 48t60 127q0 81-57.5 125T354 525H156V181z"/><glyph glyph-name="germandbls" unicode="ß" horiz-adv-x="620" d="M289-2v43q101 2 158 39.5T504 189q0 130-215 153v41q170 52 170 177 0 57-41.5 94T310 691q-74 0-121-52t-47-139V0H93v500q0 105 60 171t160 66q89 0 144-50.5T512 560q0-68-45.5-117T355 370q88-15 145-59.5T557 189q0-90-72-140.5T289-2z"/><glyph glyph-name="agrave" unicode="à" horiz-adv-x="574" d="M248-12q-78 0-137.5 43T51 150q0 78 61 122t162 44q86 0 169-22v22q0 76-44 116t-124 40-160-41l-18 43q95 44 181 44 105 0 161-56 52-52 52-144V0h-48v85q-69-97-195-97zm3 46q80 0 136.5 44.5T444 191v58q-90 23-173 23-80 0-124-32.5T103 151q0-53 43.5-85T251 34zm13 561L157 698l61 30 88-133h-42z"/><glyph glyph-name="aacute" unicode="á" horiz-adv-x="574" d="M248-12q-78 0-137.5 43T51 150q0 78 61 122t162 44q86 0 169-22v22q0 76-44 116t-124 40-160-41l-18 43q95 44 181 44 105 0 161-56 52-52 52-144V0h-48v85q-69-97-195-97zm3 46q80 0 136.5 44.5T444 191v58q-90 23-173 23-80 0-124-32.5T103 151q0-53 43.5-85T251 34zm5 561l88 133 61-30-107-103h-42z"/><glyph glyph-name="acircumflex" unicode="â" horiz-adv-x="574" d="M248-12q-78 0-137.5 43T51 150q0 78 61 122t162 44q86 0 169-22v22q0 76-44 116t-124 40-160-41l-18 43q95 44 181 44 105 0 161-56 52-52 52-144V0h-48v85q-69-97-195-97zm3 46q80 0 136.5 44.5T444 191v58q-90 23-173 23-80 0-124-32.5T103 151q0-53 43.5-85T251 34zm-81 561l100 122h40l100-122h-47l-74 68-74-68h-45z"/><glyph glyph-name="atilde" unicode="ã" horiz-adv-x="574" d="M248-12q-78 0-137.5 43T51 150q0 78 61 122t162 44q86 0 169-22v22q0 76-44 116t-124 40-160-41l-18 43q95 44 181 44 105 0 161-56 52-52 52-144V0h-48v85q-69-97-195-97zm3 46q80 0 136.5 44.5T444 191v58q-90 23-173 23-80 0-124-32.5T103 151q0-53 43.5-85T251 34zm-75 552l-34 9q14 52 33.5 72.5T226 688q19 0 65.5-20.5T354 647q18 0 28.5 10.5T404 697l34-9q-14-52-33.5-72.5T354 595q-20 0-66 20.5T226 636q-18 0-28.5-10.5T176 586z"/><glyph glyph-name="adieresis" unicode="ä" horiz-adv-x="574" d="M248-12q-78 0-137.5 43T51 150q0 78 61 122t162 44q86 0 169-22v22q0 76-44 116t-124 40-160-41l-18 43q95 44 181 44 105 0 161-56 52-52 52-144V0h-48v85q-69-97-195-97zm3 46q80 0 136.5 44.5T444 191v58q-90 23-173 23-80 0-124-32.5T103 151q0-53 43.5-85T251 34zm-77 561v80h69v-80h-69zm163 0v80h69v-80h-69z"/><glyph glyph-name="aring" unicode="å" horiz-adv-x="574" d="M248-12q-78 0-137.5 43T51 150q0 78 61 122t162 44q86 0 169-22v22q0 76-44 116t-124 40-160-41l-18 43q95 44 181 44 105 0 161-56 52-52 52-144V0h-48v85q-69-97-195-97zm3 46q80 0 136.5 44.5T444 191v58q-90 23-173 23-80 0-124-32.5T103 151q0-53 43.5-85T251 34zm39 559q-39 0-68.5 28T192 688q0 38 29.5 65.5T290 781t68.5-28 29.5-67q0-38-29.5-65.5T290 593zm0 32q25 0 43.5 18.5T352 688q0 25-18.5 43T290 749q-26 0-44-18.5T228 686q0-25 18.5-43t43.5-18z"/><glyph glyph-name="ae" unicode="æ" horiz-adv-x="954" d="M243-12q-77 0-134.5 43T51 150q0 78 60 122t158 44q77 0 160-22v22q0 76-42 116t-119 40q-73 0-153-41l-18 43q93 44 174 44 158 0 193-128 31 60 85.5 96T670 522q105 0 169.5-76T904 255q0-12-1-20H480q7-92 64.5-146.5T680 34q100 0 175 80l34-30q-89-96-211-96-63 0-117.5 29.5T472 100Q375-12 243-12zm3 46q118 0 204 107-21 52-22 109-95 22-162 22-78 0-120.5-32.5T103 151q0-54 41-85.5T246 34zm234 245h371q-6 84-53 141t-130 57q-75 0-128-56.5T480 279z"/><glyph glyph-name="ccedilla" unicode="ç" horiz-adv-x="571" d="M263-148l-55 26 76 112Q187 3 122.5 78.5T58 255q0 108 76 187.5T318 522q114 0 204-94l-35-36q-82 84-170 84-87 0-146.5-64T111 255q0-92 61-156.5T321 34q95 0 171 85l34-30Q440-7 330-12z"/><glyph glyph-name="egrave" unicode="è" horiz-adv-x="584" d="M308-12q-103 0-176.5 75T58 256q0 112 69.5 189T300 522q105 0 169.5-76T534 255q0-12-1-20H110q7-92 64.5-146.5T310 34q100 0 175 80l34-30q-89-96-211-96zM110 279h371q-6 84-53 141t-130 57q-75 0-128-56.5T110 279zm176 316L179 698l61 30 88-133h-42z"/><glyph glyph-name="eacute" unicode="é" horiz-adv-x="584" d="M308-12q-103 0-176.5 75T58 256q0 112 69.5 189T300 522q105 0 169.5-76T534 255q0-12-1-20H110q7-92 64.5-146.5T310 34q100 0 175 80l34-30q-89-96-211-96zM110 279h371q-6 84-53 141t-130 57q-75 0-128-56.5T110 279zm147 316l88 133 61-30-107-103h-42z"/><glyph glyph-name="ecircumflex" unicode="ê" horiz-adv-x="584" d="M308-12q-103 0-176.5 75T58 256q0 112 69.5 189T300 522q105 0 169.5-76T534 255q0-12-1-20H110q7-92 64.5-146.5T310 34q100 0 175 80l34-30q-89-96-211-96zM110 279h371q-6 84-53 141t-130 57q-75 0-128-56.5T110 279zm67 316l100 122h40l100-122h-47l-74 68-74-68h-45z"/><glyph glyph-name="edieresis" unicode="ë" horiz-adv-x="584" d="M308-12q-103 0-176.5 75T58 256q0 112 69.5 189T300 522q105 0 169.5-76T534 255q0-12-1-20H110q7-92 64.5-146.5T310 34q100 0 175 80l34-30q-89-96-211-96zM110 279h371q-6 84-53 141t-130 57q-75 0-128-56.5T110 279zm71 316v80h69v-80h-69zm163 0v80h69v-80h-69z"/><glyph glyph-name="igrave" unicode="ì" horiz-adv-x="249" d="M100 0v510h49V0h-49zm2 595L-5 698l61 30 88-133h-42z"/><glyph glyph-name="iacute" unicode="í" horiz-adv-x="249" d="M100 0v510h49V0h-49zm5 595l88 133 61-30-107-103h-42z"/><glyph glyph-name="icircumflex" unicode="î" horiz-adv-x="249" d="M100 0v510h49V0h-49zM4 595l100 122h40l100-122h-47l-74 68-74-68H4z"/><glyph glyph-name="idieresis" unicode="ï" horiz-adv-x="249" d="M100 0v510h49V0h-49zM8 595v80h69v-80H8zm163 0v80h69v-80h-69z"/><glyph glyph-name="eth" unicode="ð" horiz-adv-x="628" d="M309-12q-107 0-179 75.5T58 245q0 105 71 173t169 68q95 0 177-63L328 631l-133-68-29 36 137 67-45 64h63l27-41 98 50 28-36-102-50 109-161q43-63 65-120t22-125q0-106-72.5-182.5T309-12zm5 46q88 0 144.5 62T515 244q0 82-61 140t-150 58q-87 0-140-57.5T111 240q0-81 58.5-143.5T314 34z"/><glyph glyph-name="ntilde" unicode="ñ" horiz-adv-x="613" d="M93 0v510h49v-95q61 107 184 107 95 0 149.5-58.5T530 312V0h-49v303q0 80-43 127t-119 47-126.5-51.5T142 295V0H93zm104 586l-34 9q14 52 33.5 72.5T247 688q19 0 65.5-20.5T375 647q18 0 28.5 10.5T425 697l34-9q-14-52-33.5-72.5T375 595q-19 0-65 20.5T247 636q-18 0-28.5-10.5T197 586z"/><glyph glyph-name="ograve" unicode="ò" horiz-adv-x="640" d="M319-12q-112 0-186.5 78.5T58 255q0 109 75.5 188T321 522t186.5-78.5T582 255q0-109-75.5-188T319-12zm2 46q85 0 146.5 65T529 255q0 92-61.5 156.5T319 476q-86 0-147-64.5T111 255t61-156.5T321 34zm-23 561L191 698l61 30 88-133h-42z"/><glyph glyph-name="oacute" unicode="ó" horiz-adv-x="640" d="M319-12q-112 0-186.5 78.5T58 255q0 109 75.5 188T321 522t186.5-78.5T582 255q0-109-75.5-188T319-12zm2 46q85 0 146.5 65T529 255q0 92-61.5 156.5T319 476q-86 0-147-64.5T111 255t61-156.5T321 34zm-21 561l88 133 61-30-107-103h-42z"/><glyph glyph-name="ocircumflex" unicode="ô" horiz-adv-x="640" d="M319-12q-112 0-186.5 78.5T58 255q0 109 75.5 188T321 522t186.5-78.5T582 255q0-109-75.5-188T319-12zm2 46q85 0 146.5 65T529 255q0 92-61.5 156.5T319 476q-86 0-147-64.5T111 255t61-156.5T321 34zM200 595l100 122h40l100-122h-47l-74 68-74-68h-45z"/><glyph glyph-name="otilde" unicode="õ" horiz-adv-x="640" d="M319-12q-112 0-186.5 78.5T58 255q0 109 75.5 188T321 522t186.5-78.5T582 255q0-109-75.5-188T319-12zm2 46q85 0 146.5 65T529 255q0 92-61.5 156.5T319 476q-86 0-147-64.5T111 255t61-156.5T321 34zM206 586l-34 9q14 52 33.5 72.5T256 688q20 0 66-20.5t62-20.5q18 0 28.5 10.5T434 697l34-9q-14-52-33.5-72.5T384 595q-20 0-66 20.5T256 636q-18 0-28.5-10.5T206 586z"/><glyph glyph-name="odieresis" unicode="ö" horiz-adv-x="640" d="M319-12q-112 0-186.5 78.5T58 255q0 109 75.5 188T321 522t186.5-78.5T582 255q0-109-75.5-188T319-12zm2 46q85 0 146.5 65T529 255q0 92-61.5 156.5T319 476q-86 0-147-64.5T111 255t61-156.5T321 34zM204 595v80h69v-80h-69zm163 0v80h69v-80h-69z"/><glyph glyph-name="divide" unicode="÷" horiz-adv-x="640" d="M93 328v51h454v-51H93zm194-199v85h66v-85h-66zm0 364v85h66v-85h-66z"/><glyph glyph-name="oslash" unicode="ø" horiz-adv-x="640" d="M319-12q-96 0-167 60L100-5H43l79 82q-64 75-64 178 0 109 75.5 188T321 522q96 0 167-61l52 56h57l-80-84q65-75 65-178 0-109-75.5-188T319-12zm2 46q90 0 149 64t59 157q0 79-47 141L184 86q58-52 137-52zm-163 80l298 309q-59 53-137 53-90 0-149-64t-59-157q0-80 47-141z"/><glyph glyph-name="ugrave" unicode="ù" horiz-adv-x="613" d="M287-12q-95 0-149.5 58.5T83 198v312h49V207q0-80 43-127t119-47 126.5 51.5T471 215v295h49V0h-49v95Q410-12 287-12zm2 602L182 693l61 30 88-133h-42z"/><glyph glyph-name="uacute" unicode="ú" horiz-adv-x="613" d="M287-12q-95 0-149.5 58.5T83 198v312h49V207q0-80 43-127t119-47 126.5 51.5T471 215v295h49V0h-49v95Q410-12 287-12zm-10 602l88 133 61-30-107-103h-42z"/><glyph glyph-name="ucircumflex" unicode="û" horiz-adv-x="613" d="M287-12q-95 0-149.5 58.5T83 198v312h49V207q0-80 43-127t119-47 126.5 51.5T471 215v295h49V0h-49v95Q410-12 287-12zm-99 607l100 122h40l100-122h-47l-74 68-74-68h-45z"/><glyph glyph-name="udieresis" unicode="ü" horiz-adv-x="613" d="M287-12q-95 0-149.5 58.5T83 198v312h49V207q0-80 43-127t119-47 126.5 51.5T471 215v295h49V0h-49v95Q410-12 287-12zm-95 607v80h69v-80h-69zm163 0v80h69v-80h-69z"/><glyph glyph-name="yacute" unicode="ý" horiz-adv-x="588" d="M155-163q-51 0-101 22l17 43q39-19 87-19 40 0 69 27t57 93L39 510h57L308 54l184 456h54L325-18q-33-78-73.5-111.5T155-163zm126 753l88 133 61-30-107-103h-42z"/><glyph glyph-name="thorn" unicode="þ" horiz-adv-x="660" d="M93-160v890h49V396q83 126 210 126 98 0 173-73.5T600 255q0-119-75-193T352-12q-130 0-210 122v-270H93zM347 35q86 0 143 59.5T547 255q0 98-58.5 159T347 475t-145.5-62.5T139 254q0-95 62.5-157T347 35z"/><glyph glyph-name="ydieresis" unicode="ÿ" horiz-adv-x="588" d="M155-163q-51 0-101 22l17 43q39-19 87-19 40 0 69 27t57 93L39 510h57L308 54l184 456h54L325-18q-33-78-73.5-111.5T155-163zm23 758v80h69v-80h-69zm163 0v80h69v-80h-69z"/><glyph glyph-name="dotlessi" unicode="ı" horiz-adv-x="249" d="M100 0v510h49V0h-49z"/><glyph glyph-name="Lslash" unicode="Ł" horiz-adv-x="649" d="M134 0v316l-75-23v48l75 23v336h51V380l225 69v-48l-225-69V48h412V0H134z"/><glyph glyph-name="lslash" unicode="ł" horiz-adv-x="309" d="M130 0v336l-76-24v50l76 23v345h49V400l76 24v-50l-76-24V0h-49z"/><glyph glyph-name="OE" unicode="Œ" horiz-adv-x="1152" d="M445 0Q281 0 177 99.5T73 350q0 150 104.5 250T445 700h639v-48H653V377h386v-48H653V48h436V0H445zm0 48h156v604H445q-143 0-230.5-86T127 350q0-128 87.5-215T445 48z"/><glyph glyph-name="oe" unicode="œ" horiz-adv-x="1055" d="M318-12q-110 0-185 78.5T58 255q0 109 75.5 188T320 522q79 0 141.5-43T554 366q28 71 86 113.5T772 522q105 0 169-76t64-191q0-12-1-20H581q7-92 64.5-146.5T781 34q100 0 175 80l34-30q-89-96-209-96-75 0-136.5 42.5T554 145q-30-70-93-113.5T318-12zm3 46q90 0 149 64t59 157q0 92-61 156.5T319 476q-90 0-149-64t-59-157q0-92 61-156.5T321 34zm260 245h371q-6 84-53 141t-130 57q-75 0-128-56.5T581 279z"/><glyph glyph-name="Scaron" unicode="Š" horiz-adv-x="640" d="M341-10Q184-10 59 102l34 39q59-55 117-79.5T344 37q78 0 127.5 39.5T521 178q0 58-41.5 92T323 327q-126 26-181 72T87 526q0 78 64 131t161 53q74 0 129.5-20.5T552 625l-33-41q-91 79-209 79-76 0-123.5-38.5T139 529q0-59 42.5-94T343 376q121-25 175.5-71T573 181q0-84-65-137.5T341-10zm-34 775L207 887h47l74-68 74 68h45L347 765h-40z"/><glyph glyph-name="scaron" unicode="š" horiz-adv-x="497" d="M258-10q-55 0-111.5 20.5T49 64l29 39q87-67 183-67 53 0 88 27t35 72q0 41-34.5 62T249 237q-35 10-51 15t-45 18-42.5 26-25 34.5T74 379q0 62 47 101.5T242 520q97 0 181-56l-26-41q-77 51-157 51-52 0-84-25.5T124 383q0-16 8.5-30t20-23 33-18.5 37-14.5 43.5-13q38-11 62-20t51.5-26 41-41.5T434 139q0-67-50.5-108T258-10zm-27 605L131 717h47l74-68 74 68h45L271 595h-40z"/><glyph glyph-name="Ydieresis" unicode="Ÿ" horiz-adv-x="716" d="M332 0v277L32 700h65l262-376 263 376h62L384 278V0h-52zm-90 760v80h69v-80h-69zm163 0v80h69v-80h-69z"/><glyph glyph-name="Zcaron" unicode="Ž" horiz-adv-x="688" d="M68 0v29l479 624H85v47h536v-29L142 47h479V0H68zm261 765L229 887h47l74-68 74 68h45L369 765h-40z"/><glyph glyph-name="zcaron" unicode="ž" horiz-adv-x="554" d="M58 0v28l368 438H72v44h427v-28L131 44h368V0H58zm208 595L166 717h47l74-68 74 68h45L306 595h-40z"/><glyph glyph-name="florin" unicode="ƒ" horiz-adv-x="506" d="M90-5Q67-5 41-1v44q20-4 46-4 67 0 82 82l49 263H109v45h117l26 136q14 74 48.5 107t94.5 33q41 0 75-10v-44q-40 10-70 10-41 0-63-23t-32-76l-25-133h155v-45H272l-50-266q-12-63-44-93T90-5z"/><glyph glyph-name="circumflex" unicode="ˆ" d="M130 595l100 122h40l100-122h-47l-74 68-74-68h-45z"/><glyph glyph-name="caron" unicode="ˇ" d="M230 595L130 717h47l74-68 74 68h45L270 595h-40z"/><glyph glyph-name="breve" unicode="˘" d="M250 593q-56 0-92.5 33T117 717h39q19-73 94-73t94 73h39q-4-58-40.5-91T250 593z"/><glyph glyph-name="dotaccent" unicode="˙" d="M214 595v81h72v-81h-72z"/><glyph glyph-name="ring" unicode="˚" d="M250 593q-39 0-68.5 28T152 688q0 38 29.5 65.5T250 781t68.5-28 29.5-67q0-38-29.5-65.5T250 593zm0 32q25 0 43.5 18.5T312 688q0 25-18.5 43T250 749q-26 0-44-18.5T188 686q0-25 18.5-43t43.5-18z"/><glyph glyph-name="ogonek" unicode="˛" d="M356-164h-13q-76 0-116 29.5T187-57q0 34 14 67h43q-6-27-6-56 0-81 118-87v-31z"/><glyph glyph-name="tilde" unicode="˜" d="M136 586l-34 9q14 52 33.5 72.5T186 688q19 0 65.5-20.5T314 647q18 0 28.5 10.5T364 697l34-9q-14-52-33.5-72.5T314 595q-19 0-65.5 20.5T186 636q-18 0-28.5-10.5T136 586z"/><glyph glyph-name="hungarumlaut" unicode="˝" d="M102 595l89 133 55-29-101-104h-43zm152 0l89 133 55-29-101-104h-43z"/><glyph glyph-name="Omega" unicode="Ω" horiz-adv-x="792" d="M707 0H467v176q90 15 138 77.5T653 410q0 108-74.5 178T395 658q-108 0-182.5-70T138 411q0-92 49.5-158.5T325 176V0H85v47h197v90q-91 24-144 100.5T85 410q0 128 91.5 212.5T397 707q127 0 218-84.5T706 412q0-98-52-173.5T510 137V47h197V0z"/><glyph glyph-name="Omega" unicode="Ω" horiz-adv-x="792" d="M707 0H467v176q90 15 138 77.5T653 410q0 108-74.5 178T395 658q-108 0-182.5-70T138 411q0-92 49.5-158.5T325 176V0H85v47h197v90q-91 24-144 100.5T85 410q0 128 91.5 212.5T397 707q127 0 218-84.5T706 412q0-98-52-173.5T510 137V47h197V0z"/><glyph glyph-name="pi" unicode="π" d="M0 0v700h500V0H0zm81 49h339L250 304zM49 96l171 254L49 604V96zm401 0v508L279 350zM250 395l170 255H81z"/><glyph glyph-name="afii10023" unicode="Ё" horiz-adv-x="670" d="M104 0v700h498v-48H156V377h401v-48H156V48h451V0H104zm135 765v80h69v-80h-69zm163 0v80h69v-80h-69z"/><glyph glyph-name="afii10051" unicode="Ђ" horiz-adv-x="856" d="M564-12q-51 0-101 22l17 43q37-18 87-18 67 0 121 47t54 145q0 83-49 135t-128 52q-74 0-131-23.5T320 316V0h-52v652H54v48h540v-48H320V372q112 89 242 89 104 0 168-62t64-171q0-111-64-175.5T564-12z"/><glyph glyph-name="afii10052" unicode="Ѓ" horiz-adv-x="590" d="M104 0v700h437v-48H156V0h-52zm166 765l88 133 61-30-107-103h-42z"/><glyph glyph-name="afii10053" unicode="Є" horiz-adv-x="738" d="M421-12Q272-12 172.5 92T73 348t100 258 250 106q86 0 146-28.5T691 598l-33-36Q552 665 422 665q-119 0-202.5-82T128 377h377v-48H127q8-126 92-210t204-84q73 0 129 27t112 82l35-36Q581-12 421-12z"/><glyph glyph-name="afii10054" unicode="Ѕ" horiz-adv-x="640" d="M341-10Q184-10 59 102l34 39q59-55 117-79.5T344 37q78 0 127.5 39.5T521 178q0 58-41.5 92T323 327q-126 26-181 72T87 526q0 78 64 131t161 53q74 0 129.5-20.5T552 625l-33-41q-91 79-209 79-76 0-123.5-38.5T139 529q0-59 42.5-94T343 376q121-25 175.5-71T573 181q0-84-65-137.5T341-10z"/><glyph glyph-name="afii10055" unicode="І" horiz-adv-x="274" d="M111 0v700h52V0h-52z"/><glyph glyph-name="afii10056" unicode="Ї" horiz-adv-x="274" d="M111 0v700h52V0h-52zM21 765v80h69v-80H21zm163 0v80h69v-80h-69z"/><glyph glyph-name="afii10057" unicode="Ј" horiz-adv-x="549" d="M249-10Q110-10 37 121l43 27q34-57 73.5-84T252 37q67 0 109.5 49T404 224v476h52V228q0-118-64-182-56-56-143-56z"/><glyph glyph-name="afii10058" unicode="Љ" horiz-adv-x="1178" d="M84-7Q40-7 0 10l16 43q24-12 67-12 14 0 25.5 3t28 15.5T166 93t27 60.5 23 93.5 15 135.5 6 183.5v134h429V419h207q109 0 182-50t73-151q0-100-68.5-159T878 0H614v652H287v-88q0-147-12-253.5t-30-167T198.5 48 144 3 84-7zm582 55h203q97 0 151 42.5t54 125.5q0 76-55.5 115.5T863 371H666V48z"/><glyph glyph-name="afii10059" unicode="Њ" horiz-adv-x="1168" d="M104 0v700h52V399h448v301h52V399h217q107 0 176-48t69-143q0-94-64.5-151T878 0H604v351H156V0h-52zm552 48h213q95 0 145 40.5t50 117.5q0 70-51.5 107.5T863 351H656V48z"/><glyph glyph-name="afii10060" unicode="Ћ" horiz-adv-x="877" d="M268 0v652H54v48h540v-48H320V357q112 89 242 89 105 0 168.5-52T794 245V0h-52v250q0 67-49 108t-128 41q-74 0-131-23.5T320 301V0h-52z"/><glyph glyph-name="afii10061" unicode="Ќ" horiz-adv-x="715" d="M104 0v700h52V240l446 460h71L367 391 686 0h-68L330 354 156 178V0h-52zm199 765l88 133 61-30-107-103h-42z"/><glyph glyph-name="afii10062" unicode="Ў" horiz-adv-x="727" d="M202-12q-60 0-112 24l20 45q41-20 92-20 97 0 158 122L44 700h61l281-487 240 487h57L405 142Q328-12 202-12zm184 775q-52 0-89 32.5T251 878l41 9q19-73 94-73t94 73l41-9q-9-50-46-82.5T386 763z"/><glyph glyph-name="afii10145" unicode="Џ" horiz-adv-x="750" d="M353-160V0H104v700h52V48h438v652h52V0H407v-160h-54z"/><glyph glyph-name="afii10017" unicode="А" horiz-adv-x="790" d="M44 0l326 705h50L746 0h-57l-89 196H187L98 0H44zm165 243h369L394 648z"/><glyph glyph-name="afii10018" unicode="Б" horiz-adv-x="708" d="M104 0v700h488v-48H156V404h236q116 0 184.5-48T645 208 580.5 54 400 0H104zm52 48h234q201 0 201 160 0 73-53.5 110.5T385 356H156V48z"/><glyph glyph-name="afii10019" unicode="В" horiz-adv-x="722" d="M104 0v700h289q103 0 165-47.5T620 526q0-118-119-166 158-41 158-169 0-87-68.5-139T408 0H104zm52 48h254q90 0 143 39t53 106q0 65-55 100.5T393 329H156V48zm0 329h231q81 0 130.5 38T567 523q0 59-46 94t-129 35H156V377z"/><glyph glyph-name="afii10020" unicode="Г" horiz-adv-x="590" d="M104 0v700h437v-48H156V0h-52z"/><glyph glyph-name="afii10021" unicode="Д" horiz-adv-x="751" d="M10-160V48h75q54 75 83 207.5T197 552v148h429V48h95l-10-208h-44V0H64L54-160H10zM145 48h429v604H248V514q0-142-27.5-269T145 48z"/><glyph glyph-name="afii10022" unicode="Е" horiz-adv-x="670" d="M104 0v700h498v-48H156V377h401v-48H156V48h451V0H104z"/><glyph glyph-name="afii10024" unicode="Ж" horiz-adv-x="1072" d="M23 0l295 399L43 700h66l401-446v446h52V254l401 446h66L754 399 1049 0h-65L718 360 562 189V0h-52v189L353 360 88 0H23z"/><glyph glyph-name="afii10025" unicode="З" horiz-adv-x="625" d="M325-12Q165-12 40 100l34 39q59-54 118.5-79T327 35q78 0 129.5 41.5T508 185q0 68-54.5 106.5T301 330h-76v46h77q82 0 134.5 39.5T489 524q0 61-49 100.5T315 664q-115 0-212-79l-31 40q107 86 245 86 100 0 163-52.5T543 524q0-121-133-166 69-20 110.5-63.5T562 184q0-82-67-139T325-12z"/><glyph glyph-name="afii10026" unicode="И" horiz-adv-x="766" d="M104 0v700h52V75l455 625h51V0h-52v625L156 0h-52z"/><glyph glyph-name="afii10027" unicode="Й" horiz-adv-x="766" d="M104 0v700h52V75l455 625h51V0h-52v625L156 0h-52zm280 758q-52 0-89 32.5T249 873l41 9q19-73 94-73t94 73l41-9q-9-50-46-82.5T384 758z"/><glyph glyph-name="afii10028" unicode="К" horiz-adv-x="715" d="M104 0v700h52V240l446 460h71L367 391 686 0h-68L330 354 156 178V0h-52z"/><glyph glyph-name="afii10029" unicode="Л" horiz-adv-x="770" d="M84-7Q40-7 0 10l16 43q24-12 67-12 14 0 25.5 3t28 15.5T166 93t27 60.5 23 93.5 15 135.5 6 183.5v134h429V0h-52v652H287v-88q0-147-12-253.5t-30-167T198.5 48 144 3 84-7z"/><glyph glyph-name="afii10030" unicode="М" horiz-adv-x="868" d="M104 0v700h49l281-414 281 414h49V0h-52v608L435 205h-4L154 608V0h-50z"/><glyph glyph-name="afii10031" unicode="Н" horiz-adv-x="760" d="M104 0v700h52V376h448v324h52V0h-52v328H156V0h-52z"/><glyph glyph-name="afii10032" unicode="О" horiz-adv-x="850" d="M424-12Q269-12 171 94.5T73 350q0 148 99 255t254 107 253-106.5T777 350q0-148-99-255T424-12zm2 47q128 0 212.5 91T723 350q0 131-85.5 223T424 665t-212.5-91T127 350q0-131 85.5-223T426 35z"/><glyph glyph-name="afii10033" unicode="П" horiz-adv-x="750" d="M104 0v700h542V0h-52v652H156V0h-52z"/><glyph glyph-name="afii10034" unicode="Р" horiz-adv-x="668" d="M104 0v700h254q117 0 188.5-57.5T618 484q0-106-78.5-164.5T345 261H156V0h-52zm52 309h192q98 0 158 47.5T566 483q0 81-57.5 125T354 652H156V309z"/><glyph glyph-name="afii10035" unicode="С" horiz-adv-x="738" d="M421-12Q272-12 172.5 92.5T73 350q0 150 100 256t250 106q86 0 146.5-29T692 597l-34-35Q552 665 422 665q-126 0-210.5-90.5T127 350q0-133 85.5-224T423 35q73 0 129 27t112 82l35-34q-61-60-126-91T421-12z"/><glyph glyph-name="afii10036" unicode="Т" horiz-adv-x="648" d="M298 0v652H54v48h540v-48H350V0h-52z"/><glyph glyph-name="afii10037" unicode="У" horiz-adv-x="727" d="M202-12q-60 0-112 24l20 45q41-20 92-20 97 0 158 122L44 700h61l281-487 240 487h57L405 142Q328-12 202-12z"/><glyph glyph-name="afii10038" unicode="Ф" horiz-adv-x="862" d="M405-26v78h-33q-149 0-235.5 85.5T50 351t86.5 214T372 651h33v71h52v-71h33q149 0 235.5-86T812 351t-86.5-213.5T490 52h-33v-78h-52zM372 99h33v505h-33q-127-2-197.5-71T104 351q0-112 70.5-181T372 99zm85 0h33q127 2 197.5 71T758 351q0 113-70.5 182T490 604h-33V99z"/><glyph glyph-name="afii10039" unicode="Х" horiz-adv-x="722" d="M51 0l279 357L61 700h62l239-308 238 308h61L393 358 671 0h-62L360 323 112 0H51z"/><glyph glyph-name="afii10040" unicode="Ц" horiz-adv-x="771" d="M687-160V0H104v700h52V48h438v652h52V48h95l-10-208h-44z"/><glyph glyph-name="afii10041" unicode="Ч" horiz-adv-x="690" d="M534 0v312q-48-26-114-49.5T302 239q-103 0-162.5 51.5T80 440v260h52V435q0-68 44.5-108.5T299 286q105 0 235 75v339h52V0h-52z"/><glyph glyph-name="afii10042" unicode="Ш" horiz-adv-x="1100" d="M104 0v700h52V48h368v652h52V48h368v652h52V0H104z"/><glyph glyph-name="afii10043" unicode="Щ" horiz-adv-x="1121" d="M1037-160V0H104v700h52V48h368v652h52V48h368v652h52V48h95l-10-208h-44z"/><glyph glyph-name="afii10044" unicode="Ъ" horiz-adv-x="804" d="M240 0v652H50v48h242V419h207q109 0 182-50t73-151q0-100-68.5-159T504 0H240zm52 48h203q97 0 151 42.5T700 216q0 76-55.5 115.5T489 371H292V48z"/><glyph glyph-name="afii10045" unicode="Ы" horiz-adv-x="870" d="M104 0v700h52V419h207q109 0 182-50t73-151q0-100-68.5-159T368 0H104zm52 48h203q97 0 151 42.5T564 216q0 76-55.5 115.5T353 371H156V48zM714 0v700h52V0h-52z"/><glyph glyph-name="afii10046" unicode="Ь" horiz-adv-x="668" d="M104 0v700h52V419h207q109 0 182-50t73-151q0-100-68.5-159T368 0H104zm52 48h203q97 0 151 42.5T564 216q0 76-55.5 115.5T353 371H156V48z"/><glyph glyph-name="afii10047" unicode="Э" horiz-adv-x="738" d="M317-12Q157-12 39 108l35 36q56-55 112-82t129-27q120 0 203.5 84T610 329H233v48h377q-9 124-92 206t-202 82q-130 0-236-103l-33 36q62 57 122 85.5T315 712q150 0 250-106t100-258-99.5-256T317-12z"/><glyph glyph-name="afii10048" unicode="Ю" horiz-adv-x="1038" d="M638-12q-139 0-228.5 96.5T313 328H156V0h-52v700h52V376h157q8 145 98.5 240.5T640 712q144 0 234.5-103T965 351 873.5 92 638-12zm2 47q119 0 195 89.5T911 350q0 134-77.5 224.5T638 665q-119 0-195-89.5T367 350q0-134 77.5-224.5T640 35z"/><glyph glyph-name="afii10049" unicode="Я" horiz-adv-x="723" d="M48 0l223 289q-91 12-144 66T74 496q0 88 68 146t182 58h294V0h-52v280H329L114 0H48zm282 327h236v325H327q-94 0-147.5-43.5T126 492q0-75 57.5-120T330 327z"/><glyph glyph-name="afii10065" unicode="а" horiz-adv-x="574" d="M248-12q-84 0-140.5 42.5T51 150q0 78 61 122t162 44q86 0 169-22v22q0 76-44 116t-124 40-160-41l-18 43q95 44 181 44 105 0 161-56 52-52 52-144V0h-48v85q-69-97-195-97zm3 46q80 0 136.5 44.5T444 191v58q-90 23-173 23-80 0-123.5-32.5T104 151q0-55 40-86t107-31z"/><glyph glyph-name="afii10066" unicode="б" horiz-adv-x="642" d="M326-12q-112 0-184 77T70 268q0 51 1.5 84.5t7 76.5T96 501.5t31.5 58.5 51 48.5T252 639l290 73 14-44-280-74q-81-21-115.5-66.5T118 392q72 120 221 120 101 0 173-77t72-183q0-108-74-186T326-12zm2 46q87 0 145 63t58 153-59.5 153T326 466q-87 0-145-63t-58-153 59.5-153T328 34z"/><glyph glyph-name="afii10067" unicode="в" horiz-adv-x="580" d="M93 0v510h233q75 0 120-34.5t45-92.5q0-81-86-117 51-13 83-45t32-82q0-63-50-101T337 0H93zm49 44h189q64 0 101 27.5t37 74.5q0 45-38.5 70T319 241H142V44zm0 238h177q55 0 88.5 25.5T441 380q0 39-31 62.5T322 466H142V282z"/><glyph glyph-name="afii10068" unicode="г" horiz-adv-x="460" d="M93 0v510h337v-44H142V0H93z"/><glyph glyph-name="afii10069" unicode="д" horiz-adv-x="610" d="M14-144V44h67q75 123 75 358v108h342V44h82l-10-188h-40V0H65L55-144H14zM135 44h314v422H203v-92q0-100-18.5-189T135 44z"/><glyph glyph-name="afii10070" unicode="е" horiz-adv-x="584" d="M308-12q-103 0-176.5 75T58 256q0 112 69.5 189T300 522q105 0 169.5-76T534 255q0-12-1-20H110q7-92 64.5-146.5T310 34q100 0 175 80l34-30q-89-96-211-96zM110 279h371q-6 84-53 141t-130 57q-75 0-128-56.5T110 279z"/><glyph glyph-name="afii10072" unicode="ж" horiz-adv-x="835" d="M26 0l216 289L39 510h62l292-325v325h49V185l292 325h62L592 289 809 0h-60L561 254 442 125V0h-49v125L274 255 86 0H26z"/><glyph glyph-name="afii10073" unicode="з" d="M253-10Q138-10 45 66l30 40q82-70 176-70 54 0 96.5 30.5T390 141q0 45-38 71.5T248 239h-70v44h71q55 0 91 27t36 73q0 40-35 65t-88 25q-93 0-159-52l-29 39q80 59 189 59 80 0 128-38t48-98q0-84-82-118 95-33 95-125 0-62-53.5-106T253-10z"/><glyph glyph-name="afii10074" unicode="и" horiz-adv-x="630" d="M93 0v510h49V65l346 445h49V0h-49v445L142 0H93z"/><glyph glyph-name="afii10075" unicode="й" horiz-adv-x="630" d="M93 0v510h49V65l346 445h49V0h-49v445L142 0H93zm222 593q-52 0-89 32.5T180 708l41 9q19-73 94-73t94 73l41-9q-9-50-46-82.5T315 593z"/><glyph glyph-name="afii10076" unicode="к" horiz-adv-x="556" d="M93 0v510h49V183l316 327h65L300 284 530 0h-62L266 249 142 124V0H93z"/><glyph glyph-name="afii10077" unicode="л" horiz-adv-x="610" d="M60-8Q32-8 4 0l9 45q25-7 39-7 20 0 32.5 4.5T112 61t24 44 17.5 78T166 306t4 177v27h347V0h-49v466H217v-14q0-124-8-210t-20-134.5-34-75T112.5-1 60-8z"/><glyph glyph-name="afii10078" unicode="м" horiz-adv-x="690" d="M93 0v510h44l208-293 208 293h44V0h-49v425L343 143 140 425V0H93z"/><glyph glyph-name="afii10079" unicode="н" horiz-adv-x="623" d="M93 0v510h49V283h339v227h49V0h-49v239H142V0H93z"/><glyph glyph-name="afii10080" unicode="о" horiz-adv-x="640" d="M319-12q-112 0-186.5 78.5T58 255q0 109 75.5 188T321 522t186.5-78.5T582 255q0-109-75.5-188T319-12zm2 46q85 0 146.5 65T529 255q0 92-61.5 156.5T319 476q-86 0-147-64.5T111 255t61-156.5T321 34z"/><glyph glyph-name="afii10081" unicode="п" horiz-adv-x="610" d="M93 0v510h424V0h-49v466H142V0H93z"/><glyph glyph-name="afii10082" unicode="р" horiz-adv-x="660" d="M93-160v670h49V396q83 126 210 126 98 0 173-73.5T600 255q0-119-75-193T352-12q-130 0-210 122v-270H93zM347 35q86 0 143 59.5T547 255q0 98-58.5 159T347 475t-145.5-62.5T139 254q0-95 62.5-157T347 35z"/><glyph glyph-name="afii10083" unicode="с" horiz-adv-x="571" d="M318-12q-110 0-185 78T58 255q0 110 75.5 188.5T318 522q119 0 203-95l-34-35q-82 84-170 84-85 0-145.5-65T111 255q0-92 61-156.5T321 34q91 0 169 87l36-32Q437-12 318-12z"/><glyph glyph-name="afii10084" unicode="т" horiz-adv-x="491" d="M221 0v466H30v44h431v-44H270V0h-49z"/><glyph glyph-name="afii10085" unicode="у" horiz-adv-x="588" d="M155-163q-51 0-101 22l17 43q39-19 87-19 40 0 69 27t57 93L39 510h57L308 54l184 456h54L325-18q-33-78-73.5-111.5T155-163z"/><glyph glyph-name="afii10086" unicode="ф" horiz-adv-x="855" d="M403-160V46q-67-58-135-58-94 0-151 72.5T60 257q0 123 57 194t151 71q70 0 135-60v238h49V462q31 29 61.5 44.5T587 522q94 0 151-71.5T795 255q0-123-57.5-195T587-12q-46 0-74 14t-61 44v-206h-49zM273 35q74 0 130 61v318q-56 61-130 61-79 0-119.5-59T113 253q0-218 160-218zm309 0q160 0 160 220 0 103-40.5 161.5T582 475q-74 0-130-61V96q56-61 130-61z"/><glyph glyph-name="afii10087" unicode="х" horiz-adv-x="570" d="M45 0l209 260L53 510h61l172-216 172 216h59L316 261 525 0h-61L284 227 104 0H45z"/><glyph glyph-name="afii10088" unicode="ц" horiz-adv-x="629" d="M549-144V0H93v510h49V44h326v466h49V44h82l-10-188h-40z"/><glyph glyph-name="afii10089" unicode="ч" horiz-adv-x="560" d="M418 0v223q-35-20-86-36t-97-16q-77 0-121.5 38T69 319v191h49V318q0-47 30.5-74.5T233 216q46 0 97.5 15.5T418 272v238h49V0h-49z"/><glyph glyph-name="afii10090" unicode="ш" horiz-adv-x="897" d="M93 0v510h49V44h282v466h49V44h282v466h49V0H93z"/><glyph glyph-name="afii10091" unicode="щ" horiz-adv-x="916" d="M836-144V0H93v510h49V44h282v466h49V44h282v466h49V44h82l-10-188h-40z"/><glyph glyph-name="afii10092" unicode="ъ" horiz-adv-x="619" d="M183 0v466H20v44h212V314h152q85 0 140-37.5T579 164q0-74-51-119T393 0H183zm49 44h153q65 0 103 31t38 87q0 51-39 79.5T381 270H232V44z"/><glyph glyph-name="afii10093" unicode="ы" horiz-adv-x="733" d="M93 0v510h49V314h152q85 0 140-37.5T489 164q0-74-51-119T303 0H93zm49 44h153q65 0 103 31t38 87q0 51-39 79.5T291 270H142V44zM591 0v510h49V0h-49z"/><glyph glyph-name="afii10094" unicode="ь" horiz-adv-x="529" d="M93 0v510h49V314h152q85 0 140-37.5T489 164q0-74-51-119T303 0H93zm49 44h153q65 0 103 31t38 87q0 51-39 79.5T291 270H142V44z"/><glyph glyph-name="afii10095" unicode="э" horiz-adv-x="571" d="M253-12Q128-12 45 89l36 31q77-86 169-86 83 0 143 58.5T459 239H191v44h267q-9 82-68 137.5T254 476q-91 0-170-84l-33 34q43 45 90 70.5T253 522q111 0 185.5-79T513 253q0-108-75.5-186.5T253-12z"/><glyph glyph-name="afii10096" unicode="ю" horiz-adv-x="820" d="M514-12q-106 0-172.5 70T268 234H142V0H93v510h49V279h126q8 103 75.5 173T516 522q110 0 178-77.5T762 255q0-111-68.5-189T514-12zm2 46q88 0 140.5 63T709 255q0 94-54 157.5T514 476q-88 0-140.5-63T321 255q0-94 54-157.5T516 34z"/><glyph glyph-name="afii10097" unicode="я" horiz-adv-x="574" d="M52 0l161 203q-64 12-105.5 53T66 358q0 68 50 110t137 42h228V0h-49v196H264L112 0H52zm210 240h170v226H260q-66 0-103.5-30T119 355q0-52 40-83.5T262 240z"/><glyph glyph-name="afii10071" unicode="ё" horiz-adv-x="584" d="M308-12q-103 0-176.5 75T58 256q0 112 69.5 189T300 522q105 0 169.5-76T534 255q0-12-1-20H110q7-92 64.5-146.5T310 34q100 0 175 80l34-30q-89-96-211-96zM110 279h371q-6 84-53 141t-130 57q-75 0-128-56.5T110 279zm71 316v80h69v-80h-69zm163 0v80h69v-80h-69z"/><glyph glyph-name="afii10099" unicode="ђ" horiz-adv-x="613" d="M326-12q-51 0-101 22l17 43q39-19 87-19 66 0 109 47.5T481 207v96q0 80-43 127t-119 47-126.5-51.5T142 295V0H93v580H10v45h83v105h49V625h229v-45H142V415q61 107 184 107 95 0 149.5-58.5T530 312V198q0-93-54.5-151.5T326-12z"/><glyph glyph-name="afii10100" unicode="ѓ" horiz-adv-x="460" d="M93 0v510h337v-44H142V0H93zm113 595l88 133 61-30-107-103h-42z"/><glyph glyph-name="afii10101" unicode="є" horiz-adv-x="571" d="M318-12q-109 0-184.5 78.5T58 253q0 111 74.5 190T318 522q65 0 112-25.5t90-70.5l-33-34q-79 84-170 84-77 0-136-55.5T112 283h268v-44H111q7-88 66.5-146.5T321 34q92 0 169 86l36-31Q443-12 318-12z"/><glyph glyph-name="afii10102" unicode="ѕ" horiz-adv-x="497" d="M258-10q-55 0-111.5 20.5T49 64l29 39q87-67 183-67 53 0 88 27t35 72q0 41-34.5 62T249 237q-35 10-51 15t-45 18-42.5 26-25 34.5T74 379q0 62 47 101.5T242 520q97 0 181-56l-26-41q-77 51-157 51-52 0-84-25.5T124 383q0-16 8.5-30t20-23 33-18.5 37-14.5 43.5-13q38-11 62-20t51.5-26 41-41.5T434 139q0-67-50.5-108T258-10z"/><glyph glyph-name="afii10103" unicode="і" horiz-adv-x="249" d="M100 0v510h49V0h-49zm-6 643v67h61v-67H94z"/><glyph glyph-name="afii10104" unicode="ї" horiz-adv-x="249" d="M9 595v80h69v-80H9zm163 0v80h69v-80h-69zM100 0v510h49V0h-49z"/><glyph glyph-name="afii10105" unicode="ј" horiz-adv-x="249" d="M40-163q-21 0-41 4v43q18-3 40-3 28 0 44.5 18T100-48v558h49V-45q0-58-29-88t-80-30zm54 806v67h61v-67H94z"/><glyph glyph-name="afii10106" unicode="љ" horiz-adv-x="904" d="M60-8Q32-8 4 0l9 45q25-7 39-7 20 0 32.5 4.5T112 61t24 44 17.5 78T166 306t4 177v27h347V314h152q85 0 140-37.5T864 164q0-74-51-119T678 0H468v466H217v-14q0-124-8-210t-20-134.5-34-75T112.5-1 60-8zm457 52h153q65 0 103 31t38 87q0 51-39 79.5T666 270H517V44z"/><glyph glyph-name="afii10107" unicode="њ" horiz-adv-x="917" d="M93 0v510h49V300h339v210h49V300h152q87 0 141-34.5T877 157q0-73-50.5-115T691 0H481v256H142V0H93zm437 44h153q66 0 103.5 28t37.5 83q0 50-38 75.5T679 256H530V44z"/><glyph glyph-name="afii10108" unicode="ћ" horiz-adv-x="613" d="M93 0v580H10v45h83v105h49V625h229v-45H142V415q61 107 184 107 95 0 149.5-58.5T530 312V0h-49v303q0 80-43 127t-119 47-126.5-51.5T142 295V0H93z"/><glyph glyph-name="afii10109" unicode="ќ" horiz-adv-x="556" d="M93 0v510h49V183l316 327h65L300 284 530 0h-62L266 249 142 124V0H93zm130 595l88 133 61-30-107-103h-42z"/><glyph glyph-name="afii10110" unicode="ў" horiz-adv-x="588" d="M155-163q-51 0-101 22l17 43q39-19 87-19 40 0 69 27t57 93L39 510h57L308 54l184 456h54L325-18q-33-78-73.5-111.5T155-163zm153 756q-52 0-89 32.5T173 708l41 9q19-73 94-73t94 73l41-9q-9-50-46-82.5T308 593z"/><glyph glyph-name="afii10193" unicode="џ" horiz-adv-x="616" d="M284-144V0H93v510h49V45h326v465h49V0H334v-144h-50z"/><glyph glyph-name="afii10050" unicode="Ґ" horiz-adv-x="590" d="M104 0v700h383v160h44l10-208H156V0h-52z"/><glyph glyph-name="afii10098" unicode="ґ" horiz-adv-x="460" d="M93 0v510h287v144h40l10-188H142V0H93z"/><glyph glyph-name="uni0492" unicode="Ғ" horiz-adv-x="600" d="M581 654H199V347h308v-41H199V0h-51v306H40v41h108v353h433v-46z"/><glyph glyph-name="uni0493" unicode="ғ" horiz-adv-x="491" d="M479 477H172V256h234v-39H172V0h-50v217H48v39h74v266h357v-45z"/><glyph glyph-name="uni049A" unicode="Қ" horiz-adv-x="744" d="M635 46h94v-206h-49V0h-68L345 332H177V0h-51v700h51V378h169l251 322h57L386 359z"/><glyph glyph-name="uni049B" unicode="қ" horiz-adv-x="568" d="M516 43h90v-161h-46V0h-67L285 242H158V0h-50v522h50V285h127l197 237h55L325 269z"/><glyph glyph-name="uni04A2" unicode="Ң" horiz-adv-x="843" d="M696 46h114v-206h-48V0H645v333H177V0h-51v700h51V378h468v322h51V46z"/><glyph glyph-name="uni04A3" unicode="ң" horiz-adv-x="687" d="M562 44h86v-162h-48V0h-88v240H158V0h-50v522h50V284h354v238h50V44z"/><glyph glyph-name="uni04AE" unicode="Ү" horiz-adv-x="639" d="M627 700L345 241V0h-51v241L12 700h56l253-412 253 412h53z"/><glyph glyph-name="uni04AF" unicode="ү" horiz-adv-x="547" d="M535 522L299 0v-194h-51V0L13 522h53L274 55l210 467h51z"/><glyph glyph-name="uni04B0" unicode="Ұ" horiz-adv-x="639" d="M627 700L359 263h168v-38H345V0h-51v225H110v38h170L12 700h56l253-412 253 412h53z"/><glyph glyph-name="uni04B1" unicode="ұ" horiz-adv-x="547" d="M535 522L310 24h163v-38H299v-180h-51v180H74v38h163L13 522h53L274 55l210 467h51z"/><glyph glyph-name="uni04D8" unicode="Ә" horiz-adv-x="825" d="M398 705q150 0 257-97t107-255q0-157-104-257.5T402-5Q251-5 148.5 95T46 349q0 19 1 28h662q-10 126-99.5 203.5T398 658q-131 0-239-89l-37 35q124 101 276 101zm4-664q125 0 213.5 83.5T710 336H97q5-128 92-211.5T402 41z"/><glyph glyph-name="uni04D9" unicode="ә" horiz-adv-x="609" d="M284 526q118 0 193.5-74.5T553 261 482 70.5 303-4 124.5 69.5 54 259q0 2 .5 6.5t.5 7.5h449q-4 93-65.5 150.5T283 481q-107 0-167-73l-29 33q70 85 197 85zm19-486q83 0 138.5 54T503 234H103q5-85 61-139.5T303 40z"/><glyph glyph-name="uni04E8" unicode="Ө" horiz-adv-x="853" d="M426 705q157 0 260.5-101T790 350 686.5 96 426-5Q270-5 166 96.5T62 350t104 253.5T426 705zm0-47q-128 0-215.5-80.5T115 372h623q-8 125-95.5 205.5T426 658zm0-616q129 0 216.5 81T738 329H115q8-125 95.5-206T426 42z"/><glyph glyph-name="uni04E9" unicode="ө" horiz-adv-x="643" d="M321 526q115 0 191-74.5T588 261 512 70.5 321-4 130 70.5 54 261t76 190.5T321 526zm0-42q-90 0-150-56t-67-147h434q-7 91-67 147t-150 56zm0-446q90 0 150.5 57T538 243H104q6-91 66.5-148T321 38z"/><glyph glyph-name="endash" unicode="–" horiz-adv-x="528" d="M70 271v52h388v-52H70z"/><glyph glyph-name="emdash" unicode="—" horiz-adv-x="898" d="M70 271v52h758v-52H70z"/><glyph glyph-name="quoteleft" unicode="‘" horiz-adv-x="230" d="M77 513v74q0 47 19 74t64 44l12-25q-56-28-56-73v-9h27v-85H77z"/><glyph glyph-name="quoteright" unicode="’" horiz-adv-x="230" d="M70 508l-12 25q56 28 56 73v9H87v85h66v-74q0-47-19-74t-64-44z"/><glyph glyph-name="quotesinglbase" unicode="‚" horiz-adv-x="230" d="M65-107L53-82q56 28 56 73v9H82v85h66V11q0-47-19-74t-64-44z"/><glyph glyph-name="quotedblleft" unicode="“" horiz-adv-x="410" d="M77 513v74q0 47 19 74t64 44l12-25q-56-28-56-73v-9h27v-85H77zm180 0v74q0 47 19 74t64 44l12-25q-56-28-56-73v-9h27v-85h-66z"/><glyph glyph-name="quotedblright" unicode="”" horiz-adv-x="410" d="M70 508l-12 25q56 28 56 73v9H87v85h66v-74q0-47-19-74t-64-44zm180 0l-12 25q56 28 56 73v9h-27v85h66v-74q0-47-19-74t-64-44z"/><glyph glyph-name="quotedblbase" unicode="„" horiz-adv-x="410" d="M65-107L53-82q56 28 56 73v9H82v85h66V11q0-47-19-74t-64-44zm180 0l-12 25q56 28 56 73v9h-27v85h66V11q0-47-19-74t-64-44z"/><glyph glyph-name="dagger" unicode="†" horiz-adv-x="410" d="M183 238l5 286-125-7v45l124-7-7 145h50l-7-145 124 7v-45l-125 7 5-286h-44z"/><glyph glyph-name="daggerdbl" unicode="‡" horiz-adv-x="430" d="M190 0l7 145-124-7v45l125-7-5 174 5 174-125-7v45l124-7-7 145h50l-7-145 124 7v-45l-125 7 5-174-5-174 125 7v-45l-124 7 7-145h-50z"/><glyph glyph-name="bullet" unicode="•" horiz-adv-x="470" d="M235 228q-51 0-87.5 36.5T111 353q0 50 37.5 86.5T235 476t86.5-36.5T359 351q0-51-36.5-87T235 228z"/><glyph glyph-name="ellipsis" unicode="…" horiz-adv-x="680" d="M82 0v83h64V0H82zm226 0v83h64V0h-64zm226 0v83h64V0h-64z"/><glyph glyph-name="perthousand" unicode="‰" horiz-adv-x="1200" d="M128 0l514 700h54L182 0h-54zm486-8q-67 0-110 52.5T461 171q0 73 43.5 126T616 350q67 0 110-53t43-126-43.5-126T614-8zm2 43q44 0 72.5 39t28.5 97-30 97-73 39q-44 0-72.5-39.5T513 171q0-58 30-97t73-39zM990-8q-67 0-110 52.5T837 171q0 73 43.5 126T992 350q67 0 110-53t43-126-43.5-126T990-8zm2 43q44 0 72.5 39t28.5 97-30 97-73 39q-44 0-72.5-39.5T889 171q0-58 30-97t73-39zM208 350q-67 0-110 52.5T55 529q0 73 43.5 126T210 708q67 0 110-53t43-126-43.5-126T208 350zm2 43q44 0 72.5 39t28.5 97-30 97-73 39q-44 0-72.5-39.5T107 529q0-58 30-97t73-39z"/><glyph glyph-name="guilsinglleft" unicode="‹" horiz-adv-x="311" d="M211 42L51 251v8l160 209 37-24-137-188L248 66z"/><glyph glyph-name="guilsinglright" unicode="›" horiz-adv-x="311" d="M100 42L63 66l137 188L63 444l37 24 160-209v-8z"/><glyph glyph-name="fraction" unicode="⁄" horiz-adv-x="410" d="M-67-98l468 856h54L-13-98h-54z"/><glyph glyph-name="Euro" unicode="€" horiz-adv-x="720" d="M428-12q-102 0-177.5 70.5T149 245H59v48h83q-3 27-3 57 0 34 5 66H59v48h94q28 110 100.5 179T421 712q147 0 240-140l-40-27q-43 63-88.5 92T419 666q-74 0-132-56t-83-146h284v-48H195q-5-30-5-66 0-28 3-57h295v-48H202q24-95 85-153t144-58q111 0 194 128l38-25Q566-12 428-12z"/><glyph glyph-name="afii61352" unicode="№" horiz-adv-x="953" d="M65 0v700h59L527 91v609h50V0h-49L115 622V0H65zm599 174v40h238v-40H664zm119 118q-55 0-92 38.5T654 424q0 54 37.5 93t92.5 39 92-38.5 37-93.5q0-54-37.5-93T783 292zm1 39q38 0 62 26.5t24 66.5q0 39-25 66t-62 27q-38 0-62-26.5T697 424q0-39 25-66t62-27z"/><glyph glyph-name="published" unicode="℗" horiz-adv-x="830" d="M414-12Q263-12 158 94T53 350q0 149 106 255.5T416 712t256-106 105-256q0-149-106-255.5T414-12zm0 28q141 0 237 98t96 238q0 138-95 235t-236 97-237-98-96-238q0-138 95-235t236-97zM296 175v366h141q66 0 104.5-30.5T580 424q0-58-43-89.5T430 303h-90V175h-44zm44 169h91q48 0 76 21t28 59q0 76-101 76h-94V344z"/><glyph glyph-name="trademark" unicode="™" horiz-adv-x="690" d="M127 392v274H26v34h237v-34H162V392h-35zm206 0v308h37l120-183 120 183h36V392h-35v246L492 460h-5L368 638V392h-35z"/><glyph glyph-name="partialdiff" unicode="∂" d="M0 0v700h500V0H0zm81 49h339L250 304zM49 96l171 254L49 604V96zm401 0v508L279 350zM250 395l170 255H81z"/><glyph glyph-name="Delta" unicode="∆" horiz-adv-x="790" d="M54 0l316 705h50L736 0H54zm75 48h529L394 648z"/><glyph glyph-name="product" unicode="∏" d="M0 0v700h500V0H0zm81 49h339L250 304zM49 96l171 254L49 604V96zm401 0v508L279 350zM250 395l170 255H81z"/><glyph glyph-name="summation" unicode="∑" d="M0 0v700h500V0H0zm81 49h339L250 304zM49 96l171 254L49 604V96zm401 0v508L279 350zM250 395l170 255H81z"/><glyph glyph-name="minus" unicode="−" horiz-adv-x="640" d="M93 328v51h454v-51H93z"/><glyph glyph-name="radical" unicode="√" horiz-adv-x="481" d="M490 786L280-214h-55L57 132l-45-22-19 40 88 43 166-346 194 939h49z"/><glyph glyph-name="infinity" unicode="∞" horiz-adv-x="722" d="M172 217q-59 0-95.5 39T40 354t36 100 94 41q16 0 31.5-3t31.5-11.5 27.5-14.5 28.5-19.5 24.5-20 25.5-23 23-20.5q11 9 40 36t44.5 39 44 24.5T547 495q59 0 97-40.5T682 354q0-61-35.5-99T550 217q-35 0-72 18t-60 36.5-56 50.5q-5-4-32.5-27.5t-38-31-33.5-22-43-19.5-43-5zm1 48q61 0 155 89-7 6-33 27t-41 32.5-39.5 22.5-44.5 11q-37 0-59.5-27.5T88 354q0-40 23-64.5t62-24.5zm379 0q38 0 60 25.5t22 63.5q0 41-22 67t-63 26q-56 0-154-93 2-2 18.5-16.5T435 319t20-15.5 23.5-16 22-11 26-9T552 265z"/><glyph glyph-name="integral" unicode="∫" d="M0 0v700h500V0H0zm81 49h339L250 304zM49 96l171 254L49 604V96zm401 0v508L279 350zM250 395l170 255H81z"/><glyph glyph-name="approxequal" unicode="≈" horiz-adv-x="640" d="M581 500q-6-55-35.5-92T463 371q-46 0-146.5 37T180 445q-34 0-56-24t-27-59H59q22 131 118 131 45 0 145.5-37T461 419q35 0 55.5 22.5T544 500h37zm0-161q-6-54-36-91.5T463 210q-47 0-146.5 37T180 284q-34 0-56-24t-27-59H59q22 131 118 131 46 0 146-37t138-37q35 0 55.5 22.5T544 339h37z"/><glyph glyph-name="notequal" unicode="≠" horiz-adv-x="640" d="M93 439v51h269l67 124 42-22-55-102h131v-51H389l-93-174h251v-51H268L206 97l-42 23 50 94H93v51h149l93 174H93z"/><glyph glyph-name="lessequal" unicode="≤" horiz-adv-x="640" d="M569 97L72 290v54l497 193v-54L138 317l431-166V97zm0-92H72v48h497V5z"/><glyph glyph-name="greaterequal" unicode="≥" horiz-adv-x="640" d="M568 290L71 97v54l430 166L71 483v54l497-193v-54zm0-285H71v48h497V5z"/><glyph glyph-name="lozenge" unicode="◊" horiz-adv-x="640" d="M515 356L346-35h-53L126 356l167 391h53zm-53 0L320 691 180 356 320 21z"/><glyph glyph-name="cyrBreve" unicode="" d="M250 593q-52 0-89 32.5T115 708l41 9q19-73 94-73t94 73l41-9q-9-50-46-82.5T250 593z"/><glyph glyph-name="cyrbreve" unicode="" d="M250 593q-52 0-89 32.5T115 708l41 9q19-73 94-73t94 73l41-9q-9-50-46-82.5T250 593z"/><glyph glyph-name="apple" unicode="" d="M0 0v700h500V0H0zm81 49h339L250 304zM49 96l171 254L49 604V96zm401 0v508L279 350zM250 395l170 255H81z"/><glyph glyph-name="ff" unicode="ﬀ" horiz-adv-x="724" d="M123 0v465H49v45h74v50q0 88 45 133 40 40 107 40 41 0 76-12v-46q-42 13-76 13-103 0-103-129v-49h178v-45H172V0h-49zm362 0v465h-74v45h74v50q0 88 45 133 40 40 107 40 41 0 76-12v-46q-42 13-76 13-103 0-103-129v-49h178v-45H534V0h-49z"/><glyph glyph-name="nbspace" horiz-adv-x="300"/></font>
</defs>
</svg>
