<svg xmlns="http://www.w3.org/2000/svg" viewBox="0 0 20 20">
  <path fill="#000000" d="M17.069 12.535a9.853 9.853 0 0 0-3.141-2.128 5.928 5.928 0 0 0 2.015-4.459A5.953 5.953 0 0 0 9.996 0a5.948 5.948 0 0 0-5.944 5.945c0 1.715.732 3.329 2.015 4.459a9.963 9.963 0 0 0-3.141 2.128A9.948 9.948 0 0 0 0 19.606V20h2.289v-.394c0-4.252 3.46-7.713 7.711-7.713s7.711 3.46 7.711 7.713V20H20v-.394a9.92 9.92 0 0 0-2.931-7.071zM10 2.286a3.661 3.661 0 0 1 3.659 3.659A3.661 3.661 0 0 1 10 9.604a3.661 3.661 0 0 1-3.659-3.659A3.661 3.661 0 0 1 10 2.286z"/>
</svg>
