<svg xmlns="http://www.w3.org/2000/svg" viewBox="0 0 20 20">
  <path fill="#000000" d="M19.894 14.837a1.457 1.457 0 0 0-.068-.137c-.347-.657-1.01-1.464-1.989-2.42l-.021-.022-.01-.011-.007-.007a.015.015 0 0 0-.009-.004c-.003 0-.007-.001-.009-.004-.442-.443-.722-.742-.84-.894-.216-.292-.264-.588-.146-.887.083-.226.396-.704.937-1.434.285-.387.51-.697.677-.931 1.106-1.546 1.635-2.579 1.587-3.097a.601.601 0 0 0-.087-.232c-.042-.066-.149-.126-.323-.181-.174-.055-.396-.064-.667-.027l-2.788.02c-.14.001-.284-.026-.42.007l-.103.025a.272.272 0 0 0-.105.051l-.019.018a.475.475 0 0 0-.115.115.764.764 0 0 0-.104.192 18.457 18.457 0 0 1-1.114 2.464c-.257.453-.493.845-.708 1.177a5.715 5.715 0 0 1-.541.734 3.891 3.891 0 0 1-.396.378c-.118.095-.208.135-.271.121a.572.572 0 0 1-.313-.165.787.787 0 0 1-.099-.147 1.257 1.257 0 0 1-.12-.427 4.656 4.656 0 0 1-.036-.443c-.003-.124-.002-.299.005-.526.007-.226.01-.38.01-.46 0-.277.005-.579.015-.903l.026-.772c.007-.19.01-.391.01-.602 0-.212-.012-.378-.037-.498a1.797 1.797 0 0 0-.109-.35.588.588 0 0 0-.213-.263 1.183 1.183 0 0 0-.349-.148c-.368-.088-.837-.135-1.406-.142-1.288-.018-2.118.07-2.486.26a1.42 1.42 0 0 0-.396.328c-.125.161-.142.248-.052.263.35.055.614.175.792.359.067.07.114.156.155.244.05.094.098.262.147.503.049.241.08.507.094.799.035.533.035.989 0 1.369s-.068.675-.1.887a1.857 1.857 0 0 1-.265.755.172.172 0 0 1-.052.055.752.752 0 0 1-.281.055c-.097 0-.215-.051-.354-.153a2.56 2.56 0 0 1-.432-.422 5.636 5.636 0 0 1-.505-.75A13.297 13.297 0 0 1 5.3 7.418L5.134 7.1a26.117 26.117 0 0 1-.427-.892c-.181-.391-.34-.769-.479-1.134a.716.716 0 0 0-.25-.35l-.052-.033a.706.706 0 0 0-.167-.093c-.153-.066-.323-.07-.49-.069l-2.603.02c-.292 0-.489.069-.594.208l-.041.066A.38.38 0 0 0 0 4.998c0 .08.021.179.063.296a37.127 37.127 0 0 0 1.359 2.979c.489.956.915 1.727 1.276 2.31.361.584.729 1.135 1.104 1.654.375.518.623.851.744.997.122.146.217.256.286.329l.26.263c.167.175.411.385.734.63s.68.486 1.073.723c.392.237.849.431 1.369.58.521.15 1.027.21 1.52.181h1.198c.243-.022.427-.102.552-.241l.041-.055a.744.744 0 0 0 .078-.202c.024-.091.036-.192.036-.301a3.795 3.795 0 0 1 .068-.849c.052-.252.111-.442.177-.569a1.384 1.384 0 0 1 .401-.482.653.653 0 0 1 .083-.038c.167-.058.363-.002.589.17.226.172.437.383.635.635s.436.535.713.848c.278.314.521.547.729.701l.208.131a2.441 2.441 0 0 0 .632.268c.32.087.66.025.992.02l2.167-.036c.264 0 .469-.046.614-.137.146-.091.232-.192.26-.301a.888.888 0 0 0 .005-.372 1.42 1.42 0 0 0-.072-.293z"/>
</svg>
