<svg xmlns="http://www.w3.org/2000/svg" viewBox="0 0 17.692 20">
	<path fill="#000000" d="M12.637 17.5H6.003c-.632 0-1.145-.195-1.58-.625s-.632-.937-.632-1.563V3.75H.948a.959.959 0 0 0-.671.273.91.91 0 0 0-.277.665v14.375c0 .273.079.508.276.664.158.195.395.273.672.273H11.69a.937.937 0 0 0 .947-.937V17.5zm0-13.437c0 .273.079.508.276.664.159.195.396.273.672.273h4.107v10.312a.937.937 0 0 1-.947.937H6.003c-.276 0-.513-.078-.671-.273-.197-.156-.276-.391-.276-.664V.938c0-.234.079-.469.276-.664A.951.951 0 0 1 6.003 0h6.635v4.063zm4.779-1.211c.158.195.276.43.276.664v.234h-3.791V0h.237c.237 0 .474.117.671.273l2.607 2.579z"/>
</svg>