<svg xmlns="http://www.w3.org/2000/svg" viewBox="0 0 46 44">
	<path fill="#02aae7" d="M41.9 15.145l-.015-.002-.015-.002-11.29-1.636-5.054-10.18a3.77 3.77 0 0 0-.778-1.092C24.375 1.878 23.784 1.5 23 1.5s-1.375.378-1.749.733a3.756 3.756 0 0 0-.778 1.092l-5.054 10.18L4.131 15.14l-.011.002-.01.001c-.402.064-.977.207-1.492.549-.567.376-1.118 1.05-1.118 2.034 0 .576.207 1.051.399 1.379.194.331.428.602.602.79l.027.03.029.028 8.181 7.925-1.932 11.191-.004.021-.003.021-.007.046c-.02.137-.056.379-.056.646 0 .537.131 1.18.541 1.729.451.604 1.15.968 1.968.968.693 0 1.262-.247 1.663-.462L23 36.755l10.072 5.273c.436.248 1.02.472 1.683.472.824 0 1.527-.37 1.972-.989.399-.555.514-1.194.514-1.708v-.022c0-.159 0-.395-.039-.67l-.003-.021-.004-.021-1.933-11.192 8.158-7.925.007-.007.007-.007c.327-.326 1.066-1.119 1.066-2.212 0-1.003-.577-1.673-1.133-2.038-.512-.336-1.08-.479-1.467-.543z"/>
	<path fill="#1463ab" d="M34.755 44c-.817 0-1.656-.23-2.425-.668L23 38.448l-9.396 4.919c-2.062 1.103-4.32.684-5.529-.938-.694-.931-.84-1.942-.84-2.627 0-.358.046-.685.073-.868l.018-.113 1.799-10.418-7.693-7.456a6.183 6.183 0 0 1-.827-1.084C.204 19.18 0 18.46 0 17.726c0-1.332.652-2.529 1.789-3.284.589-.392 1.291-.654 2.085-.781l10.552-1.528 4.704-9.476a5.258 5.258 0 0 1 1.089-1.512 4.048 4.048 0 0 1 5.563 0c.441.419.81.933 1.096 1.528l4.696 9.459 10.571 1.532c.776.129 1.465.388 2.045.77 1.15.754 1.81 1.954 1.81 3.292 0 1.175-.507 2.277-1.508 3.274l-7.618 7.4 1.799 10.413c.064.447.067.759.067.968 0 .696-.138 1.691-.797 2.606C37.207 43.412 36.044 44 34.755 44zM23 35.062L33.768 40.7c.497.281 1.367.459 1.741-.064.191-.266.231-.599.231-.832 0-.131.003-.292-.024-.48L33.65 27.353l8.726-8.477c.419-.42.624-.796.624-1.15 0-.322-.153-.585-.456-.783-.226-.149-.53-.258-.884-.317l-.008-.001-12.066-1.748-5.403-10.885a2.331 2.331 0 0 0-.467-.671c-.449-.426-.984-.425-1.43-.001a2.251 2.251 0 0 0-.46.654l-5.413 10.903-12.067 1.748c-.362.058-.673.167-.898.317-.297.197-.448.461-.448.784 0 .193.064.402.192.62.126.215.294.406.41.531l8.749 8.476-2.067 11.971c-.022.146-.048.305-.048.479 0 .188.032.548.244.833.177.238.442.364.765.364.376 0 .708-.152.956-.284L23 35.062z"/>
</svg>